<svg xmlns:xlink="http://www.w3.org/1999/xlink" xmlns="http://www.w3.org/2000/svg" width="269.706" height="64" viewBox="0 0 269.706 64"> <g id="HostBooks-logo" transform="translate(-63 -16)"> <g id="Group_41009" data-name="Group 41009" transform="translate(63 16)"> <path id="Path_75078" data-name="Path 75078" d="M364.249,446h57.5A3.259,3.259,0,0,1,425,449.25v57.5a3.259,3.259,0,0,1-3.249,3.25h-57.5a3.259,3.259,0,0,1-3.249-3.25v-57.5A3.259,3.259,0,0,1,364.249,446Z" transform="translate(-361 -446)" fill="#0071BC" fill-rule="evenodd"></path> <path id="Path_75079" data-name="Path 75079" d="M380.956,511.051h4.575V478.116h-4.575v32.935Z" transform="translate(-371.289 -462.559)" fill="#FFFFFF" fill-rule="evenodd"></path> <path id="Path_75080" data-name="Path 75080" d="M380.956,495.775h9.865c5.809.342,10.193,3.3,10.188,11.333L401,520.188h-3.648a1.142,1.142,0,0,1-.884-1.194v-11.82c.021-3.54-.748-6.421-5.9-6.515h-5.119l-4.5-4.884Z" transform="translate(-371.289 -471.663)" fill="#FFFFFF" fill-rule="evenodd"></path> <path id="Path_75081" data-name="Path 75081" d="M431.4,510.964h8.677c2.335.041,10.426-.477,10.668-11.712.125-5.817-3.382-12.714-13.91-12.56-.024,0-2.5,0-2.528.006v4.774c.033,0,2.522-.006,2.555,0,6.266.1,9,2.971,9.026,7.4.018,3.067-.232,7.2-6.054,7.251l-5.528.08V477.949h-4.574v31.265a1.994,1.994,0,0,0,1.667,1.749Z" transform="translate(-396.439 -462.473)" fill="#FFFFFF" fill-rule="evenodd"></path> <path id="Path_75082" data-name="Path 75082" d="M513.914,526.691H698.849v2.138H513.914v-2.138Z" transform="translate(-439.841 -487.603)" fill="#006DB7" fill-rule="evenodd"></path> <path id="Path_75083" data-name="Path 75083" d="M515.046,487.973V461.854h2.874v11.281h15.053V461.854h2.874v26.119h-2.874V475.866H517.92v12.107Zm39.334-7.646v-3.156q0-3.494-.887-4.442t-3.724-.958h-1.282c-1.886,0-3.113.317-3.694.946s-.868,2.12-.868,4.455v3.156q0,3.52.874,4.473t3.688.946h1.282q2.82,0,3.718-.964t.892-4.455Zm-5.856,7.9q-4.141,0-5.79-1.617t-1.647-5.664v-4.389q0-4.069,1.641-5.683t5.76-1.616h1.282q4.14,0,5.8,1.616t1.652,5.683v4.389q0,4.068-1.641,5.676t-5.779,1.6Zm12.933-5.749h2.767v.42a2.539,2.539,0,0,0,1.054,2.353,9.235,9.235,0,0,0,4.227.64q3.557,0,4.383-.652a3.065,3.065,0,0,0,.826-2.509,3.234,3.234,0,0,0-.677-2.413c-.449-.407-1.575-.652-3.371-.748-.67-.036-1.569-.072-2.7-.107a13.935,13.935,0,0,1-4.419-.5,3.345,3.345,0,0,1-1.5-1.581,7.236,7.236,0,0,1-.449-2.874q0-3.072,1.563-4.156t6.874-1.089c2.748,0,4.6.347,5.58,1.036a4.151,4.151,0,0,1,1.467,3.635h-2.731v-.173a1.694,1.694,0,0,0-1.06-1.694,12.36,12.36,0,0,0-4.221-.467c-2.042,0-3.335.185-3.9.563a2.651,2.651,0,0,0-.844,2.347,5.181,5.181,0,0,0,.155,1.521,1.212,1.212,0,0,0,.563.665,9.987,9.987,0,0,0,3.653.509c.479.012.85.024,1.107.036,1.545.06,2.754.138,3.634.24a6.346,6.346,0,0,1,1.88.413,3.45,3.45,0,0,1,1.748,1.611,7.226,7.226,0,0,1,.515,3.06,7.315,7.315,0,0,1-.509,3.089,4.617,4.617,0,0,1-1.826,1.862,4.775,4.775,0,0,1-1.946.551,32,32,0,0,1-3.76.168q-4.913,0-6.5-1.132c-1.06-.761-1.587-2.132-1.587-4.126v-.491Zm19.8-10.634v-2.335h2.263v-4.168h2.731v4.168H595.3v2.335h-9.054v10.167a4.52,4.52,0,0,0,.713,2.958,5.107,5.107,0,0,0,5.383.024,4.585,4.585,0,0,0,.695-2.982v-.539h2.772v.155q0,3.9-1.288,5.246t-5.359,1.353q-3.171,0-4.413-1.431t-1.234-5.168v-9.784Zm22.783,1.293h9.419a4.284,4.284,0,0,0,3.084-.826c.527-.551.791-1.76.791-3.635,0-1.79-.282-2.91-.844-3.371s-1.988-.682-4.293-.682h-8.156v8.515Zm0,12.107h9.521q2.6,0,3.491-.8c.593-.533.892-1.922.892-4.155q0-2.829-1-3.665t-5.185-.832h-7.719v9.448Zm-2.838,2.731V461.854h12.149q4.212,0,5.587,1.281t1.377,5.228a9.5,9.5,0,0,1-.677,4.251,3.606,3.606,0,0,1-2.377,1.677,4.435,4.435,0,0,1,2.886,1.868,9.162,9.162,0,0,1,.814,4.515q0,4.32-1.7,5.808t-6.82,1.491Zm37.334-7.646v-3.156q0-3.494-.886-4.442t-3.724-.958h-1.282c-1.886,0-3.113.317-3.695.946s-.868,2.12-.868,4.455v3.156q0,3.52.874,4.473t3.688.946h1.282q2.82,0,3.718-.964t.892-4.455Zm-5.856,7.9q-4.14,0-5.79-1.617t-1.647-5.664v-4.389q0-4.069,1.641-5.683t5.76-1.616h1.282q4.14,0,5.8,1.616t1.652,5.683v4.389q0,4.068-1.641,5.676t-5.778,1.6Zm26.155-7.9v-3.156q0-3.494-.886-4.442t-3.724-.958H652.94c-1.886,0-3.114.317-3.695.946s-.868,2.12-.868,4.455v3.156q0,3.52.874,4.473t3.689.946h1.281q2.821,0,3.718-.964t.892-4.455Zm-5.856,7.9q-4.14,0-5.79-1.617t-1.647-5.664v-4.389q0-4.069,1.641-5.683t5.76-1.616h1.281q4.14,0,5.8,1.616t1.652,5.683v4.389q0,4.068-1.641,5.676t-5.778,1.6Zm13.616-.251V461.854h2.731V476.7h.838l6.029-7.191h3.12l-6.976,8.227,8.341,10.239h-3.449l-7.065-8.766h-.838v8.766Zm16.7-5.5h2.766v.42a2.54,2.54,0,0,0,1.054,2.353,9.236,9.236,0,0,0,4.227.64q3.557,0,4.383-.652a3.066,3.066,0,0,0,.826-2.509,3.234,3.234,0,0,0-.677-2.413c-.449-.407-1.575-.652-3.371-.748-.671-.036-1.569-.072-2.7-.107a13.935,13.935,0,0,1-4.419-.5,3.345,3.345,0,0,1-1.5-1.581,7.234,7.234,0,0,1-.449-2.874q0-3.072,1.563-4.156t6.874-1.089c2.749,0,4.6.347,5.581,1.036a4.151,4.151,0,0,1,1.467,3.635h-2.73v-.173a1.694,1.694,0,0,0-1.06-1.694,12.363,12.363,0,0,0-4.222-.467c-2.042,0-3.335.185-3.9.563a2.651,2.651,0,0,0-.844,2.347,5.191,5.191,0,0,0,.155,1.521,1.211,1.211,0,0,0,.563.665,9.982,9.982,0,0,0,3.653.509c.479.012.85.024,1.108.036,1.545.06,2.754.138,3.634.24a6.345,6.345,0,0,1,1.88.413,3.451,3.451,0,0,1,1.749,1.611,7.234,7.234,0,0,1,.514,3.06,7.324,7.324,0,0,1-.509,3.089,4.62,4.62,0,0,1-1.826,1.862,4.774,4.774,0,0,1-1.946.551,32.005,32.005,0,0,1-3.76.168q-4.913,0-6.5-1.132c-1.06-.761-1.587-2.132-1.587-4.126v-.491Z" transform="translate(-440.424 -454.174)"></path> <path id="Path_75084" data-name="Path 75084" d="M513.915,542.671v-1.157h8.171v1.157H518.6v9.762h-1.216v-9.762Zm9.019,9.762V541.514h1.1v4.256a1.772,1.772,0,0,1,.9-.879,3.95,3.95,0,0,1,1.627-.283,2.95,2.95,0,0,1,2.125.613,3.02,3.02,0,0,1,.608,2.153v5.059h-1.142v-4.816a2.467,2.467,0,0,0-.356-1.592,1.9,1.9,0,0,0-1.382-.38,2.451,2.451,0,0,0-1.772.55,2.368,2.368,0,0,0-.56,1.753v4.486Zm9.352-4.611h4.37v-.3a2.108,2.108,0,0,0-.388-1.474,2.232,2.232,0,0,0-1.539-.388h-.536a2.191,2.191,0,0,0-1.527.388,2.138,2.138,0,0,0-.38,1.474v.3Zm1.923,4.716a3.427,3.427,0,0,1-2.421-.676,3.264,3.264,0,0,1-.688-2.371v-1.83a3.283,3.283,0,0,1,.686-2.378,3.392,3.392,0,0,1,2.408-.676h.536a3.434,3.434,0,0,1,2.423.676,3.269,3.269,0,0,1,.691,2.378v1.166l-5.557.008c0,.078-.007.165-.01.258s0,.228,0,.4a2.409,2.409,0,0,0,.383,1.6,2.12,2.12,0,0,0,1.539.408h.536a2.542,2.542,0,0,0,1.437-.3,1.365,1.365,0,0,0,.468-1.039h1.194a2.375,2.375,0,0,1-.809,1.815,3.721,3.721,0,0,1-2.278.558Zm12.917-.105V541.514h1.141v10.919Zm8.386-1.967v-.814a.845.845,0,0,0-.561-.806,4.529,4.529,0,0,0-1.784-.258,2.714,2.714,0,0,0-1.5.283,1.278,1.278,0,0,0-.378,1.081,1.459,1.459,0,0,0,.4,1.214,2.861,2.861,0,0,0,1.6.306,4.144,4.144,0,0,0,1.65-.26.817.817,0,0,0,.571-.746Zm.058,1.154a1.53,1.53,0,0,1-.839.7,4.684,4.684,0,0,1-1.6.217,4,4,0,0,1-2.428-.518,2.435,2.435,0,0,1-.616-1.927,4.515,4.515,0,0,1,.142-1.277,1.536,1.536,0,0,1,.473-.741,1.727,1.727,0,0,1,.819-.333,9.025,9.025,0,0,1,1.552-.1,5.671,5.671,0,0,1,1.6.173,1.51,1.51,0,0,1,.834.576v-1.332a1.526,1.526,0,0,0-.366-1.227,3.693,3.693,0,0,0-1.84-.278,2.982,2.982,0,0,0-1.424.225.948.948,0,0,0-.366.841h-1.141v-.178a1.558,1.558,0,0,1,.641-1.412,4.226,4.226,0,0,1,2.213-.423,12.785,12.785,0,0,1,1.863.1,2.185,2.185,0,0,1,.946.33,1.415,1.415,0,0,1,.476.653,4.423,4.423,0,0,1,.14,1.334v5.4h-1.039l-.045-.813Zm3.209.813v-7.72h1.1v1.057a1.772,1.772,0,0,1,.9-.879,3.952,3.952,0,0,1,1.627-.283,2.95,2.95,0,0,1,2.125.613,3.02,3.02,0,0,1,.608,2.153v5.059H563.99v-4.816a2.467,2.467,0,0,0-.356-1.592,1.9,1.9,0,0,0-1.382-.38,2.448,2.448,0,0,0-1.772.553,2.375,2.375,0,0,0-.561,1.75v4.486Zm13.8-3.227v-1.259a2.375,2.375,0,0,0-.56-1.758,2.516,2.516,0,0,0-1.8-.545,2.04,2.04,0,0,0-1.5.408,3,3,0,0,0-.378,1.865v1.319a2.984,2.984,0,0,0,.378,1.858,2.039,2.039,0,0,0,1.5.408,2.514,2.514,0,0,0,1.8-.546,2.364,2.364,0,0,0,.56-1.75Zm1.141-4.493v7.635a3.33,3.33,0,0,1-.668,2.373,3.265,3.265,0,0,1-2.348.67h-.528a3.566,3.566,0,0,1-2.21-.55,2.433,2.433,0,0,1-.793-1.822h1.172a1.4,1.4,0,0,0,.458,1.031,2.416,2.416,0,0,0,1.389.29h.513a2.415,2.415,0,0,0,1.442-.33,1.275,1.275,0,0,0,.433-1.079v-1.6a1.988,1.988,0,0,1-.884.921,3.412,3.412,0,0,1-1.52.283,3.211,3.211,0,0,1-2.328-.683,3.3,3.3,0,0,1-.676-2.361V547.66a3.314,3.314,0,0,1,.676-2.368,3.211,3.211,0,0,1,2.328-.684,3.366,3.366,0,0,1,1.58.315,1.91,1.91,0,0,1,.868.992v-1.2Zm8.491,0v7.72h-1.1v-1.049a1.727,1.727,0,0,1-.894.871,4.034,4.034,0,0,1-1.645.283,2.948,2.948,0,0,1-2.123-.613,3,3,0,0,1-.609-2.145v-5.067h1.142v4.824a2.428,2.428,0,0,0,.36,1.584,1.927,1.927,0,0,0,1.4.381,2.411,2.411,0,0,0,1.757-.551,2.375,2.375,0,0,0,.553-1.745v-4.493Zm7.234,5.753v-.814a.845.845,0,0,0-.561-.806,4.529,4.529,0,0,0-1.785-.258,2.714,2.714,0,0,0-1.5.283,1.278,1.278,0,0,0-.378,1.081,1.459,1.459,0,0,0,.4,1.214,2.861,2.861,0,0,0,1.6.306,4.144,4.144,0,0,0,1.65-.26.817.817,0,0,0,.571-.746Zm.058,1.154a1.53,1.53,0,0,1-.838.7,4.683,4.683,0,0,1-1.6.217,4,4,0,0,1-2.428-.518,2.434,2.434,0,0,1-.616-1.927,4.518,4.518,0,0,1,.142-1.277,1.535,1.535,0,0,1,.473-.741,1.726,1.726,0,0,1,.819-.333,9.025,9.025,0,0,1,1.552-.1,5.668,5.668,0,0,1,1.6.173,1.509,1.509,0,0,1,.834.576v-1.332a1.527,1.527,0,0,0-.366-1.227,3.692,3.692,0,0,0-1.84-.278,2.982,2.982,0,0,0-1.424.225.948.948,0,0,0-.366.841h-1.141v-.178a1.558,1.558,0,0,1,.641-1.412,4.227,4.227,0,0,1,2.213-.423,12.785,12.785,0,0,1,1.862.1,2.186,2.186,0,0,1,.946.33,1.414,1.414,0,0,1,.476.653,4.412,4.412,0,0,1,.141,1.334v5.4h-1.039l-.045-.813Zm8.526-2.413v-1.259a2.375,2.375,0,0,0-.56-1.758,2.515,2.515,0,0,0-1.8-.545,2.041,2.041,0,0,0-1.5.408,3,3,0,0,0-.378,1.865v1.319a2.983,2.983,0,0,0,.378,1.858,2.041,2.041,0,0,0,1.5.408,2.512,2.512,0,0,0,1.8-.546,2.365,2.365,0,0,0,.56-1.75Zm1.142-4.493v7.635a3.328,3.328,0,0,1-.668,2.373,3.264,3.264,0,0,1-2.348.67h-.528a3.565,3.565,0,0,1-2.21-.55,2.433,2.433,0,0,1-.794-1.822h1.172a1.4,1.4,0,0,0,.458,1.031,2.415,2.415,0,0,0,1.389.29h.513a2.418,2.418,0,0,0,1.442-.33,1.275,1.275,0,0,0,.432-1.079v-1.6a1.984,1.984,0,0,1-.884.921,3.41,3.41,0,0,1-1.519.283,3.21,3.21,0,0,1-2.328-.683,3.3,3.3,0,0,1-.676-2.361V547.66a3.313,3.313,0,0,1,.676-2.368,3.21,3.21,0,0,1,2.328-.684,3.366,3.366,0,0,1,1.58.315,1.912,1.912,0,0,1,.869.992v-1.2Zm3.069,3.109h4.371v-.3a2.108,2.108,0,0,0-.388-1.474,2.231,2.231,0,0,0-1.539-.388h-.536a2.188,2.188,0,0,0-1.527.388,2.137,2.137,0,0,0-.381,1.474v.3Zm1.923,4.716a3.426,3.426,0,0,1-2.421-.676,3.262,3.262,0,0,1-.688-2.371v-1.83a3.281,3.281,0,0,1,.686-2.378,3.39,3.39,0,0,1,2.408-.676h.536a3.434,3.434,0,0,1,2.423.676,3.269,3.269,0,0,1,.691,2.378v1.166l-5.557.008c0,.078-.007.165-.01.258s0,.228,0,.4a2.409,2.409,0,0,0,.383,1.6,2.121,2.121,0,0,0,1.539.408h.536a2.541,2.541,0,0,0,1.437-.3,1.363,1.363,0,0,0,.468-1.039h1.194a2.374,2.374,0,0,1-.809,1.815,3.719,3.719,0,0,1-2.278.558Zm18.158-3.3v-1.319a3.01,3.01,0,0,0-.37-1.857,2.163,2.163,0,0,0-1.557-.4h-.535a2.151,2.151,0,0,0-1.545.4,3.076,3.076,0,0,0-.363,1.863v1.319a3.086,3.086,0,0,0,.365,1.87,2.154,2.154,0,0,0,1.542.4h.535a2.169,2.169,0,0,0,1.555-.4,3.033,3.033,0,0,0,.372-1.863Zm-2.448,3.3a3.427,3.427,0,0,1-2.421-.676,3.261,3.261,0,0,1-.688-2.368V547.66a3.28,3.28,0,0,1,.686-2.376,3.392,3.392,0,0,1,2.408-.676h.535a3.435,3.435,0,0,1,2.424.676,3.267,3.267,0,0,1,.691,2.376v1.835a3.265,3.265,0,0,1-.686,2.373,3.427,3.427,0,0,1-2.416.671Zm4.678-6.848v-.977h1.081c0-.058,0-.125,0-.2s0-.18,0-.318a3.233,3.233,0,0,1,.515-2.078,2.267,2.267,0,0,1,1.792-.6c.22,0,.435,0,.643.015s.421.025.631.043v1.039q-.094-.007-.263-.015-.507-.014-.7-.015a1.838,1.838,0,0,0-1.179.268,1.986,1.986,0,0,0-.293,1.342v.523H629.2v.977H626.77v6.743h-1.142V545.69Zm14.268,2.258v1.259a2.364,2.364,0,0,0,.561,1.75,2.511,2.511,0,0,0,1.8.546,2.036,2.036,0,0,0,1.49-.4,3.033,3.033,0,0,0,.371-1.863v-1.319a3.048,3.048,0,0,0-.371-1.87,2.036,2.036,0,0,0-1.49-.4,2.514,2.514,0,0,0-1.8.545,2.374,2.374,0,0,0-.561,1.758Zm-1.141,4.486V541.514h1.141v4.3a2.028,2.028,0,0,1,.891-.921,3.393,3.393,0,0,1,1.512-.283,3.207,3.207,0,0,1,2.326.684,3.3,3.3,0,0,1,.678,2.368v1.835a3.289,3.289,0,0,1-.678,2.361,3.208,3.208,0,0,1-2.326.683,3.39,3.39,0,0,1-1.582-.313,1.9,1.9,0,0,1-.866-.979v1.186Zm14.729-7.72v7.72h-1.1v-1.049a1.724,1.724,0,0,1-.894.871,4.034,4.034,0,0,1-1.644.283,2.948,2.948,0,0,1-2.123-.613,3,3,0,0,1-.608-2.145v-5.067h1.142v4.824a2.425,2.425,0,0,0,.36,1.584,1.926,1.926,0,0,0,1.4.381,2.412,2.412,0,0,0,1.758-.551,2.374,2.374,0,0,0,.553-1.745v-4.493Zm1.9,5.422h1.156v.175a1.061,1.061,0,0,0,.441.984,3.856,3.856,0,0,0,1.767.268,3.639,3.639,0,0,0,1.833-.273,1.282,1.282,0,0,0,.345-1.049,1.353,1.353,0,0,0-.283-1.009,2.642,2.642,0,0,0-1.41-.313c-.28-.015-.655-.03-1.129-.045a5.828,5.828,0,0,1-1.847-.21,1.4,1.4,0,0,1-.626-.661,3.03,3.03,0,0,1-.187-1.2,1.981,1.981,0,0,1,.654-1.737,5.787,5.787,0,0,1,2.873-.456,4.368,4.368,0,0,1,2.333.433,1.736,1.736,0,0,1,.613,1.519H659.7v-.073a.708.708,0,0,0-.443-.708,5.164,5.164,0,0,0-1.765-.2,3.491,3.491,0,0,0-1.63.235,1.11,1.11,0,0,0-.353.982,2.181,2.181,0,0,0,.065.636.508.508,0,0,0,.236.277,4.167,4.167,0,0,0,1.527.213c.2.005.355.01.463.015q.969.037,1.52.1a2.645,2.645,0,0,1,.786.173,1.441,1.441,0,0,1,.731.673,3.971,3.971,0,0,1,0,2.571,1.933,1.933,0,0,1-.763.779,2,2,0,0,1-.813.231,13.423,13.423,0,0,1-1.572.07,5.211,5.211,0,0,1-2.719-.473,1.985,1.985,0,0,1-.663-1.725v-.205Zm8.869-7.33v-1.292h1.142v1.292Zm0,9.628v-7.72h1.142v7.72Zm3.34,0v-7.72h1.1v1.057a1.776,1.776,0,0,1,.9-.879,3.954,3.954,0,0,1,1.627-.283,2.951,2.951,0,0,1,2.125.613,3.02,3.02,0,0,1,.608,2.153v5.059h-1.141v-4.816a2.468,2.468,0,0,0-.355-1.592,1.9,1.9,0,0,0-1.382-.38,2.448,2.448,0,0,0-1.772.553,2.376,2.376,0,0,0-.561,1.75v4.486Zm9.352-4.611h4.37v-.3a2.106,2.106,0,0,0-.388-1.474,2.23,2.23,0,0,0-1.54-.388h-.536a2.188,2.188,0,0,0-1.527.388,2.138,2.138,0,0,0-.38,1.474v.3Zm1.922,4.716a3.426,3.426,0,0,1-2.421-.676,3.264,3.264,0,0,1-.688-2.371v-1.83a3.281,3.281,0,0,1,.686-2.378,3.391,3.391,0,0,1,2.408-.676h.536a3.435,3.435,0,0,1,2.424.676,3.272,3.272,0,0,1,.691,2.378v1.166l-5.557.008c-.005.078-.008.165-.01.258s0,.228,0,.4a2.409,2.409,0,0,0,.383,1.6,2.121,2.121,0,0,0,1.539.408h.536a2.541,2.541,0,0,0,1.437-.3,1.363,1.363,0,0,0,.468-1.039h1.194a2.375,2.375,0,0,1-.808,1.815,3.722,3.722,0,0,1-2.278.558Zm5.235-2.4h1.156v.175a1.061,1.061,0,0,0,.441.984,3.855,3.855,0,0,0,1.767.268,3.637,3.637,0,0,0,1.833-.273,1.283,1.283,0,0,0,.345-1.049,1.351,1.351,0,0,0-.283-1.009,2.64,2.64,0,0,0-1.41-.313c-.28-.015-.656-.03-1.129-.045a5.829,5.829,0,0,1-1.848-.21,1.4,1.4,0,0,1-.626-.661,3.03,3.03,0,0,1-.187-1.2,1.981,1.981,0,0,1,.654-1.737,5.787,5.787,0,0,1,2.874-.456,4.368,4.368,0,0,1,2.333.433,1.736,1.736,0,0,1,.613,1.519h-1.141v-.073a.708.708,0,0,0-.443-.708,5.166,5.166,0,0,0-1.765-.2,3.491,3.491,0,0,0-1.63.235,1.11,1.11,0,0,0-.353.982,2.185,2.185,0,0,0,.065.636.508.508,0,0,0,.235.277,4.17,4.17,0,0,0,1.528.213c.2.005.355.01.463.015q.969.037,1.519.1a2.647,2.647,0,0,1,.786.173,1.439,1.439,0,0,1,.731.673,3.017,3.017,0,0,1,.215,1.279,3.056,3.056,0,0,1-.213,1.292,1.932,1.932,0,0,1-.763.779,2,2,0,0,1-.813.231,13.429,13.429,0,0,1-1.572.07,5.212,5.212,0,0,1-2.718-.473,1.985,1.985,0,0,1-.663-1.725v-.205Zm8.583,0h1.157v.175a1.062,1.062,0,0,0,.44.984,3.858,3.858,0,0,0,1.768.268,3.635,3.635,0,0,0,1.832-.273,1.281,1.281,0,0,0,.346-1.049,1.352,1.352,0,0,0-.283-1.009,2.643,2.643,0,0,0-1.41-.313c-.28-.015-.656-.03-1.129-.045a5.827,5.827,0,0,1-1.848-.21,1.4,1.4,0,0,1-.626-.661,3.028,3.028,0,0,1-.188-1.2,1.983,1.983,0,0,1,.653-1.737,5.791,5.791,0,0,1,2.874-.456,4.367,4.367,0,0,1,2.333.433,1.735,1.735,0,0,1,.613,1.519H697v-.073a.708.708,0,0,0-.443-.708,5.164,5.164,0,0,0-1.765-.2,3.487,3.487,0,0,0-1.629.235,1.11,1.11,0,0,0-.353.982,2.183,2.183,0,0,0,.065.636.5.5,0,0,0,.235.277,4.163,4.163,0,0,0,1.527.213c.2.005.356.01.463.015.646.025,1.151.057,1.52.1a2.645,2.645,0,0,1,.786.173,1.438,1.438,0,0,1,.731.673,3.018,3.018,0,0,1,.215,1.279,3.063,3.063,0,0,1-.213,1.292,1.934,1.934,0,0,1-.763.779,2,2,0,0,1-.814.231,13.415,13.415,0,0,1-1.572.07,5.211,5.211,0,0,1-2.719-.473,1.985,1.985,0,0,1-.664-1.725v-.205Z" transform="translate(-439.841 -495.246)"></path> <path id="Path_75085" data-name="Path 75085" d="M896.513,449.3a6.465,6.465,0,1,1-6.465,6.465,6.465,6.465,0,0,1,6.465-6.465Z" transform="translate(-633.771 -447.699)" fill="none" stroke="#000000" stroke-miterlimit="2.613" stroke-width="1"></path> <path id="Path_75086" data-name="Path 75086" d="M898.339,461.947h1.128v-3.786h1.063c1.024.039,1.5.493,1.764,1.7a10.888,10.888,0,0,0,.571,2.088h1.167a15.743,15.743,0,0,1-.661-2.4,2.23,2.23,0,0,0-1.284-1.763v-.039a2.305,2.305,0,0,0,1.647-2.217,2.181,2.181,0,0,0-.687-1.66,3.608,3.608,0,0,0-2.541-.726,11.713,11.713,0,0,0-2.165.195v8.609Zm1.128-7.819a4.756,4.756,0,0,1,1.115-.1c1.193,0,2.01.493,2.01,1.621,0,1-.766,1.66-1.971,1.66h-1.154v-3.177Z" transform="translate(-638.046 -449.683)"></path> </g> </g> </svg>