<?xml version="1.0" encoding="utf-8"?>
<!-- Generator: Adobe Illustrator 22.1.0, SVG Export Plug-In . SVG Version: 6.00 Build 0)  -->
<svg version="1.1" id="OBJECTS" xmlns="http://www.w3.org/2000/svg" xmlns:xlink="http://www.w3.org/1999/xlink" x="0px" y="0px"
	 viewBox="0 0 750 500" style="enable-background:new 0 0 750 500;" xml:space="preserve">
<circle style="opacity:0.3;fill:#6A2CD8;" cx="313.12" cy="225.87" r="17.9"/>
<g>
	<path style="opacity:0.9;fill:#6A2CD8;" d="M499.51,178.55c-0.44-0.93-1.33-1.03-2.04-1.33c-5.06-2.13-10.29-3.7-15.64-4.92
		c-1.58-0.36-2.8-0.1-4.08,0.88c-3.83,2.92-8.02,5.26-12.43,7.22c-1.27,0.57-2.57,1.04-3.98,1.1c-0.97,0.05-1.86-0.16-2.36-1.13
		c-0.5-0.96-0.16-1.82,0.42-2.59c0.73-0.97,1.7-1.68,2.7-2.35c2.49-1.68,5.13-3.12,8.08-4.37c-0.9-0.8-1.68-0.64-2.36-0.67
		c-3.7-0.16-7.4-0.18-11.09-0.42c-2.18-0.15-3.7,0.69-4.98,2.34c-1.59,2.04-3.24,4.04-4.94,5.98c-1.03,1.18-2.19,2.26-3.63,2.96
		c-0.88,0.42-1.77,0.62-2.61-0.04c-0.98-0.77-0.82-1.8-0.51-2.81c0.4-1.27,1.2-2.29,2.11-3.22c0.97-0.98,1.98-1.92,2.85-3.23
		c-1.04,0.36-2.08,0.71-3.11,1.09c-3.82,1.43-7.71,2.56-11.8,2.85c-2.04,0.15-4.08,0.09-6.02-0.7c-1.13-0.46-2.22-1.08-2.28-2.53
		c-0.06-1.44,0.93-2.12,2.06-2.67c1.27-0.62,2.64-0.82,4.01-1.02c3.76-0.54,7.55-0.65,11.33-0.85c1.19-0.06,2.38-0.15,3.53-0.22
		c0.34-1.07-0.52-1.21-0.97-1.54c-1.65-1.22-3.28-2.44-4.62-4.01c-0.55-0.64-1.1-1.28-1.37-2.09c-0.37-1.08-0.63-2.2,0.24-3.16
		c0.87-0.96,1.99-0.82,3.1-0.5c1.82,0.52,3.38,1.55,4.83,2.72c2.9,2.33,5.77,4.7,8.59,7.12c0.74,0.64,1.4,1.1,2.43,1.08
		c4.62-0.11-9.71,6.89-5.09,7.16c0.27,0.02,19.5-6.77,19.68-7.21c-1.36-1.51-2.8-3.05-4.18-4.66c-1.55-1.8-2.51-3.91-2.96-6.24
		c-0.26-1.35-0.16-2.7,1.1-3.48c1.3-0.81,2.53-0.15,3.55,0.73c2.71,2.31,4.88,5.11,6.9,8.01c1.33,1.91,2.59,3.87,3.79,5.87
		c0.57,0.94,1.21,1.54,2.33,1.75c6.41,1.16,12.6,3.08,18.63,5.55c0.24,0.1,0.53,0.09,0.98,0.17c0.04-1.15-0.67-1.94-1.06-2.82
		c-1.27-2.85-1.9-5.83-1.9-8.94c0-0.46,0.05-0.93,0.13-1.39c0.28-1.51,0.72-3.01,2.46-3.32c1.72-0.31,2.73,0.89,3.55,2.19
		c1.12,1.76,1.66,3.75,1.98,5.78c0.54,3.49,1.02,6.99,1.45,10.5c0.13,1.09,0.45,1.89,1.47,2.48c6.49,3.73,12.21,8.46,17.39,13.86
		c0.25,0.26,0.56,0.46,0.98,0.8c0.48-1.28-0.23-2.28-0.48-3.27c-0.68-2.61-1.48-5.2-1.88-7.87c-0.46-3.06-0.48-6.13,0.6-9.08
		c0.46-1.27,1.13-2.45,2.67-2.43c1.55,0.02,2.21,1.25,2.65,2.51c0.71,2.03,0.98,4.16,1.2,6.29c0.57,5.48,0.5,10.96,0.09,16.43
		c-0.16,2.11,0.35,3.75,1.75,5.33c2.03,2.29,3.91,4.74,5.79,7.16c0.59,0.76,1.66,1.78,0.64,2.65c-1.26,1.07-1.88-0.41-2.55-1.22
		c-2.08-2.51-4.11-5.06-6.21-7.54c-1.47-1.73-1.7-1.75-3.76-0.76c-4.81,2.31-9.83,3.72-15.22,3.59c-1.2-0.03-2.43-0.06-3.53-0.62
		c-1.43-0.72-1.61-2.14-0.37-3.14c1.09-0.88,2.43-1.31,3.77-1.7c3.73-1.1,7.56-1.69,11.41-2.21c0.88-0.12,1.83-0.01,2.6-0.52
		c0.12-0.62-0.28-0.91-0.58-1.25c-4.66-5.12-9.83-9.62-15.65-13.38c-1.24-0.8-2.28-1.06-3.82-0.45c-5.68,2.26-11.7,2.43-17.74,2.3
		c-0.54-0.01-1.12-0.13-1.62-0.33c-1.38-0.57-1.6-1.82-0.49-2.86c0.76-0.71,1.74-1.02,2.72-1.31c2.85-0.84,5.78-1.23,8.71-1.6
		C497.7,178.93,498.63,179.01,499.51,178.55 M503.26,175.82c0.5-5.68-1.33-12.83-3.79-14.27
		C498.58,166.92,500.59,171.37,503.26,175.82 M528.38,191.14c0.96-4.79,0.08-13.73-1.61-16.46
		C524.99,180.4,526.66,185.54,528.38,191.14 M474.42,167.39c-2.65-4.18-5.1-8.61-9.51-11.92
		C465.65,160.07,468.91,164.17,474.42,167.39 M424.88,172.85c3.88,1.17,7.51,0.38,11.13-0.6c0.15-0.04,0.4-0.3,0.38-0.33
		c-0.12-0.23-0.29-0.45-0.48-0.64c-0.52-0.53-1.2-0.45-1.83-0.39c-2.48,0.25-4.95,0.53-7.42,0.84
		C426.05,171.81,425.38,171.87,424.88,172.85 M438.74,159.33c1.32,3.2,6.23,6.8,9.77,7.23
		C445.44,163.92,442.66,160.89,438.74,159.33 M462.85,178.49c4.41-1.39,9.21-4.1,11.53-6.53c-3.63,1.67-7.07,3.23-10.3,5.21
		C463.63,177.44,463.05,177.58,462.85,178.49 M522.54,201.28c-3.44,0.23-6.82,0.61-9.99,1.98
		C516.09,203.62,519.39,202.78,522.54,201.28 M499.97,181.51c-2.15-0.07-4.3,0.1-6.58,0.68c0.87,0.54,1.59,0.26,2.27,0.18
		C497.1,182.22,498.58,182.22,499.97,181.51"/>
	<rect x="249.42" y="254.93" style="opacity:0.91;fill:#6A2CD8;" width="155.98" height="95.2"/>
	<rect x="249.42" y="178.43" style="opacity:0.91;fill:#6A2CD8;" width="155.98" height="11.71"/>
	<path style="opacity:0.3;fill:#6A2CD8;" d="M494.17,186.82c-0.52-0.89-1.42-0.9-2.16-1.14c-5.24-1.66-10.59-2.74-16.03-3.46
		c-1.61-0.21-2.79,0.16-3.98,1.26c-3.55,3.26-7.51,5.98-11.71,8.33c-1.22,0.68-2.47,1.27-3.86,1.47c-0.96,0.13-1.86,0.01-2.45-0.91
		c-0.58-0.91-0.33-1.8,0.18-2.62c0.64-1.03,1.54-1.83,2.47-2.59c2.33-1.91,4.82-3.58,7.64-5.1c-0.97-0.71-1.73-0.48-2.41-0.45
		c-3.7,0.18-7.38,0.51-11.08,0.6c-2.19,0.06-3.62,1.03-4.75,2.79c-1.39,2.18-2.85,4.32-4.37,6.41c-0.92,1.27-1.97,2.45-3.34,3.28
		c-0.84,0.5-1.71,0.78-2.6,0.2c-1.04-0.68-0.98-1.72-0.76-2.75c0.28-1.3,0.98-2.39,1.81-3.4c0.87-1.07,1.8-2.09,2.54-3.47
		c-1,0.46-2.01,0.89-3,1.37c-3.67,1.77-7.44,3.26-11.49,3.93c-2.02,0.33-4.06,0.47-6.06-0.14c-1.17-0.36-2.31-0.87-2.5-2.31
		c-0.19-1.43,0.73-2.19,1.8-2.85c1.2-0.73,2.55-1.06,3.9-1.39c3.69-0.89,7.45-1.34,11.2-1.89c1.18-0.17,2.36-0.37,3.49-0.55
		c0.24-1.1-0.63-1.16-1.11-1.45c-1.75-1.06-3.49-2.13-4.97-3.57c-0.6-0.59-1.21-1.17-1.56-1.95c-0.46-1.05-0.83-2.14-0.06-3.17
		c0.78-1.04,1.91-1,3.04-0.78c1.86,0.35,3.5,1.23,5.06,2.26c3.1,2.06,6.18,4.15,9.21,6.3c0.8,0.56,1.5,0.97,2.52,0.85
		c4.59-0.54,9.22-0.74,13.84-0.89c0.27-0.01,0.54-0.05,0.68-0.5c-1.49-1.38-3.07-2.78-4.59-4.25c-1.71-1.65-2.86-3.66-3.52-5.94
		c-0.38-1.32-0.41-2.67,0.78-3.57c1.22-0.93,2.5-0.38,3.6,0.39c2.91,2.05,5.33,4.63,7.61,7.34c1.5,1.78,2.93,3.62,4.31,5.49
		c0.65,0.88,1.35,1.43,2.48,1.52c6.49,0.56,12.83,1.9,19.06,3.81c0.25,0.08,0.54,0.05,0.99,0.08c-0.07-1.15-0.85-1.87-1.32-2.71
		c-1.53-2.72-2.43-5.63-2.72-8.73c-0.04-0.46-0.04-0.93,0-1.39c0.14-1.53,0.43-3.06,2.14-3.54c1.69-0.47,2.8,0.64,3.74,1.85
		c1.28,1.65,2,3.58,2.5,5.57c0.86,3.43,1.66,6.87,2.41,10.32c0.23,1.07,0.62,1.84,1.7,2.33c6.81,3.11,12.94,7.3,18.59,12.2
		c0.27,0.24,0.6,0.41,1.05,0.71c0.36-1.32-0.44-2.25-0.78-3.21c-0.92-2.54-1.96-5.04-2.6-7.66c-0.74-3.01-1.05-6.05-0.24-9.1
		c0.34-1.31,0.9-2.54,2.44-2.66c1.54-0.12,2.31,1.04,2.87,2.26c0.9,1.96,1.36,4.05,1.78,6.15c1.07,5.4,1.51,10.87,1.6,16.35
		c0.03,2.11,0.69,3.7,2.24,5.15c2.24,2.1,4.33,4.36,6.43,6.6c0.66,0.7,1.82,1.62,0.88,2.58c-1.16,1.18-1.91-0.23-2.65-0.97
		c-2.3-2.31-4.56-4.66-6.88-6.94c-1.62-1.59-1.86-1.58-3.82-0.41c-4.58,2.75-9.45,4.62-14.83,4.97c-1.2,0.08-2.42,0.16-3.57-0.29
		c-1.49-0.59-1.8-1.98-0.66-3.09c1.01-0.98,2.3-1.52,3.59-2.04c3.61-1.44,7.37-2.38,11.16-3.25c0.87-0.2,1.82-0.17,2.54-0.76
		c0.06-0.63-0.36-0.88-0.7-1.19c-5.11-4.67-10.68-8.67-16.82-11.88c-1.31-0.69-2.37-0.84-3.84-0.09c-5.45,2.78-11.43,3.5-17.45,3.93
		c-0.54,0.04-1.13-0.02-1.64-0.18c-1.43-0.44-1.76-1.67-0.76-2.81c0.69-0.78,1.63-1.17,2.59-1.55c2.76-1.1,5.64-1.76,8.52-2.4
		C492.4,187.36,493.34,187.35,494.17,186.82 M497.66,183.75c-0.03-5.71-2.51-12.65-5.09-13.86
		C492.17,175.32,494.58,179.57,497.66,183.75 M524.08,196.69c0.52-4.86-1.19-13.68-3.12-16.24
		C519.71,186.31,521.85,191.27,524.08,196.69 M468.16,178.02c-3.03-3.92-5.87-8.1-10.57-11
		C458.75,171.54,462.37,175.32,468.16,178.02 M419.33,188.02c3.97,0.81,7.51-0.32,11.03-1.62c0.15-0.06,0.37-0.33,0.35-0.37
		c-0.15-0.22-0.33-0.42-0.54-0.59c-0.57-0.48-1.24-0.34-1.86-0.22c-2.44,0.48-4.88,0.99-7.31,1.52
		C420.41,186.88,419.74,187,419.33,188.02 M431.88,173.29c1.61,3.06,6.83,6.2,10.4,6.3C438.98,177.23,435.93,174.48,431.88,173.29
		 M457.66,190.14c4.26-1.79,8.79-4.93,10.88-7.57c-3.46,2-6.74,3.87-9.78,6.14C458.34,189.02,457.77,189.21,457.66,190.14
		 M519.2,207.32c-3.4,0.54-6.74,1.24-9.77,2.9C512.99,210.25,516.21,209.11,519.2,207.32 M494.9,189.72
		c-2.15,0.13-4.27,0.49-6.48,1.29c0.92,0.46,1.61,0.11,2.28-0.03C492.11,190.69,493.58,190.55,494.9,189.72"/>
	<g>
		<g>
			<polygon style="fill:#414151;" points="550.34,313.32 199.66,313.32 199.66,218.88 244.27,218.88 244.27,222.3 203.09,222.3 
				203.09,309.89 546.91,309.89 546.91,222.3 388.03,222.3 388.03,218.88 550.34,218.88 			"/>
		</g>
		<g>
			
				<text transform="matrix(1 0 0 1 250.0424 247.6466)" style="fill:#414151; font-family:'JosefinSans-SemiBold'; font-size:60.2671px;">POS</text>
		</g>
		<g>
			
				<text transform="matrix(1 0 0 1 243.9663 287.7067)" style="fill:#FFFFFF; font-family:'JosefinSans-Light'; font-size:33.3283px;"> S T O R E</text>
		</g>
		<g>
			<rect x="411.19" y="283.67" style="fill:#414151;" width="117.65" height="1.28"/>
		</g>
		<path style="fill:#414151;" d="M311.9,219.49c-8.21,0-8.17,12.77,0.07,12.77C320.18,232.26,320.14,219.49,311.9,219.49z"/>
	</g>
	<g>
		
			<text transform="matrix(1 0 0 1 412.7924 333.7826)" style="fill:#414151; font-family:'JosefinSans-Regular'; font-size:10.8313px;">SINCE    2010 WITH YOU</text>
	</g>
	<path style="fill:#6A2CD8;" d="M453.1,327.85c-2.66,0-2.65,4.14,0.02,4.14C455.79,331.99,455.77,327.85,453.1,327.85z"/>
</g>
</svg>
