<?xml version="1.0" encoding="utf-8"?>
<!-- Generator: Adobe Illustrator 22.1.0, SVG Export Plug-In . SVG Version: 6.00 Build 0)  -->
<svg version="1.1" id="Layer_1" xmlns="http://www.w3.org/2000/svg" xmlns:xlink="http://www.w3.org/1999/xlink" x="0px" y="0px"
	 viewBox="0 0 200 200" style="enable-background:new 0 0 200 200;" xml:space="preserve">
<style type="text/css">
	.st0{fill:#604B42;}
	.st1{fill:#775D51;}
	.st2{fill:#84665B;}
</style>
<g>
	<path class="st0" d="M170.7,70.1c1.9,0.8,3.9,1.5,5.5,2.9c1.4,1.2,2.3,2.9,3.2,4.6c6.4,12.4,8.1,26.9,7.3,40.9
		c-0.8,14-4.1,27.8-7.4,41.5c1.6-14.2,2.2-28.4,1.7-42.7c-0.2-5.5-0.8-11.5-4.7-15.2c-1.6-1.5-3.7-2.5-5.6-3.7
		c-6.3-4-10.3-11-11.3-18.5c-0.3-2.6-1-8.7,1-10.9C163.4,65.8,167.1,68.7,170.7,70.1z"/>
	<path class="st0" d="M166.7,77.1c1.9,0.8,3.9,1.5,5.5,2.9c1.4,1.2,2.3,2.9,3.2,4.6c6.4,12.4,8.1,26.9,7.3,40.9
		c-0.8,14-4.1,27.8-7.4,41.5c1.6-14.2,2.2-28.4,1.7-42.7c-0.2-5.5-0.8-11.5-4.7-15.2c-1.6-1.5-3.7-2.5-5.6-3.7
		c-6.3-4-10.3-11-11.3-18.5c-0.3-2.6-1-8.7,1-10.9C159.4,72.8,163.1,75.7,166.7,77.1z"/>
	<path class="st0" d="M163.7,81.1c1.9,0.8,3.9,1.5,5.5,2.9c1.4,1.2,2.3,2.9,3.2,4.6c6.4,12.4,8.1,26.9,7.3,40.9
		c-0.8,14-4.1,27.8-7.4,41.5c1.6-14.2,2.2-28.4,1.7-42.7c-0.2-5.5-0.8-11.5-4.7-15.2c-1.6-1.5-3.7-2.5-5.6-3.7
		c-6.3-4-10.3-11-11.3-18.5c-0.3-2.6-1-8.7,1-10.9C156.4,76.8,160.1,79.7,163.7,81.1z"/>
	<path class="st1" d="M138.1,30.9C125.2,20.2,109.4,14.3,93.4,11c-13.6-2.8-27.9-3.7-41.2,0.9c-13.3,4.7-25.4,15.8-28.9,30.4
		c2.2-3.7,5.8-6.6,9.7-7.8C18.3,52.2,9.6,75.4,8.9,98.7c1.2-8.7,5.8-16.8,12.3-22.1c-9.3,11.3-11.7,27.3-11,42.2
		c1,21.4,8,42.3,19.7,59.4c-3.3-14.5-1.6-30.1,3.4-44.3S46.5,107.1,56,95.9c-5.8,12.3-8.1,26.5-6.5,40c2.7-11.4,8.1-22.1,15.5-30.8
		c-1.2,3.1-1.7,6.5-1.3,9.8c5.5-8.4,14.1-14.1,23.1-17.2c9-3.2,18.5-4,28-4.5c-4.6,2.7-8.2,7.4-9.8,12.8c6-8.5,17.5-8.8,27.3-7.9
		c13.9,1.3,36.7-1.6,32.2-23.5C161.2,58.2,150.1,40.9,138.1,30.9z"/>
	<path class="st0" d="M164.5,74.6c-0.5-2.5-1.2-5.1-2.1-7.7c0,7-2.3,14-7.7,18.2c-4.9,3.7-11.3,4.4-17.3,5
		c-5.1,0.5-10.2,0.9-15.3,1.4c4.4-4.1,9.6-7.4,15.2-9.5c-10.9-2-22.2-2.3-33.2-0.7c9-3.9,18.4-6.5,28-7.8
		c-20.4-5.6-42.1,0.9-62.4,7.3c8-6.9,17.1-12.4,26.9-16.2C79,65.3,61.7,72,48,83.5c1.8-4.7,4.2-9.1,7-13.2
		c-9.8,10.1-18.3,21.5-25.3,33.8c-4.7,8.2-8.8,17.6-7.1,26.9c-6.1-24.2,0.5-51.4,16.9-70.1c-4.6,2.3-8.8,5.4-12.3,9.1
		c3.5-6.5,7.8-12.5,12.9-17.7c-12.1,5.5-22.4,15.3-28.7,27.2c-1.4,6.3-2.2,12.8-2.4,19.3c1.2-8.7,5.8-16.8,12.3-22.1
		c-9.3,11.3-11.7,27.3-11,42.2c1,21.4,8,42.3,19.7,59.4c-3.3-14.5-1.6-30.1,3.4-44.3c5-14.1,13.1-26.9,22.6-38.1
		c-5.8,12.3-8.1,26.5-6.5,40c2.7-11.4,8.1-22.1,15.5-30.8c-1.2,3.1-1.7,6.5-1.3,9.8c5.5-8.4,14.1-14.1,23.1-17.2
		c9-3.2,18.5-4,28-4.5c-4.6,2.7-8.2,7.4-9.8,12.8c6-8.5,17.5-8.8,27.3-7.9C146.3,99.4,169,96.5,164.5,74.6z"/>
	<path class="st0" d="M42.7,61.8c6.4-6.9,14.7-11.9,23.7-14.4c-4.1,2.6-7.6,6.3-10,10.6c3.4-3.2,7.9-4.9,12.5-5.5
		c4.6-0.6,9.2-0.2,13.7,0.3c8.4,1,17,2.8,23.7,8c-4.8-6.6-13.8-8-20.3-12.7c9.8,0.1,18.7,5.4,27.2,10.5c-3.5-5.4-9-9.2-14.8-11.7
		c-5.8-2.5-12.1-3.8-18.3-5c11.4-3.3,23.5,1.1,34.3,6C98.5,37,78.5,34.5,59.4,34.3c3.9,0,8.5,1.5,11.6,4c-7.1,0.3-9.8,1.3-15.1,5.9
		C50.3,49,45.7,54.8,42.7,61.8z"/>
	<path class="st0" d="M121.3,30.4c13.2,9.1,24.1,21.8,31.1,36.5c0.4-4.8-1.9-9.4-4.4-13.5c-7.8-12.5-18.6-23-31.1-30.5
		c1.4,1.1,2.8,2.2,4.2,3.3c-13.4-6.7-29.1-8.6-43.7-5.1C91.2,22.1,109.3,22.2,121.3,30.4z"/>
	<path class="st2" d="M57.6,15.3c-6.2,0.9-12.2,3.4-17.3,7.3c3.4-0.8,6.8-1.6,10.1-2.4c-10.9,5.3-19.6,15.4-23.2,27.2
		c6.4-8,15.1-14.1,24.7-17.2c-6,2.6-11.1,7.4-14.1,13.3c4.7-4.3,9.4-8.6,14.9-11.8c5.5-3.2,11.8-5.2,18-4.4c-5-2-10.5-2.9-15.9-2.6
		c6.6-2.5,13.5-4.1,20.5-5c-6.7-1.3-13.8-0.8-20.3,1.3c6.7-2.9,13.8-4.9,21-5.7c-8.2-0.8-16.6,0.2-24.4,2.9L57.6,15.3z"/>
	<path class="st2" d="M28.2,93.3c6-12.1,14.3-24,26.5-29.3c-1.6,0.8-2.9,2.1-3.7,3.6c7-4,14.5-6.9,22.3-8.7
		c-8.1-3.6-17.4-0.2-25.6,3.2c2.1-1.8,4.2-3.7,6.4-5.5c-5.4,4.7-12.3,7.3-16.5,13.5C32.7,77,29.4,84.9,28.2,93.3z"/>
</g>
</svg>
