<?xml version="1.0" encoding="utf-8"?>
<!-- Generator: Adobe Illustrator 22.1.0, SVG Export Plug-In . SVG Version: 6.00 Build 0)  -->
<svg version="1.1" id="Layer_1" xmlns="http://www.w3.org/2000/svg" xmlns:xlink="http://www.w3.org/1999/xlink" x="0px" y="0px"
	 viewBox="0 0 191.6 167.7" style="enable-background:new 0 0 191.6 167.7;" xml:space="preserve">
<style type="text/css">
	.st0{fill:#C7A77D;}
	.st1{fill:#D6B788;}
	.st2{fill:#E5D4AF;}
	.st3{fill:#B89772;}
	.st4{fill:#A1825F;}
	.st5{fill:#FFF7E8;}
	.st6{fill:#F0E2C5;}
	.st7{fill:#826A4B;}
</style>
<title>Hair4</title>
<path class="st0" d="M102.5,74.8C70.3,74.5,80.7,52.2,51.7,109l3.7-15.8c-16.4,27-9.3,31.4-39.7,43.1c6.5-3.7,12.1-9.6,18-14.3
	c-28.2,14.2-21.2,21.6-18.5,40.4C-8.6,129.7,1,123.2,7.6,97.8l-5.4,8.3c14.8-39-5.8-31.5,23.1-70c-8.5,6.6-15.1,16.5-21.8,38.5
	c7.8-44.5,40.2-79,88.1-73.3c52.3-8.7,80.7,23.1,93.4,69l-6.9-10.5c5.7,15.8,10.8,27.3,13.2,43.6l-8.2-14.2
	c6.1,18.4,9.9,33.9,8,47.6l-1.9-5.1c0.2,9.7-4.5,23-18.3,35.9c8.3-23.4,7.1-30.3-8-43.5l10.9,16.4
	C137.5,111.9,143.4,51.5,102.5,74.8z"/>
<path class="st1" d="M99.1,54.7c14.2-19.2,24.5-7,34.4,11.9c10.5,20.2,14.8,42.6,30.6,61.9c-9.8-19.8-9.3-19.5-13-37.2
	c10.7,22.3,38,45.5,25.7,66.8c24-27.2-5.2-62.6-32.2-101C131,37.8,110.3,18.8,99.1,54.7z"/>
<path class="st2" d="M99.2,56.3c20.9-20.6,33.2,4.1,50.5,45.2c-2.7-8.9-5.8-20.3-8.3-29.3c4.1,8.6,9.6,16.6,15.2,24.2
	c13.6,18.4,27.9,34.9,23.8,54.7c9.5-16.5-5.4-32.9-20.6-57.5C139.9,61.2,117.4,28.3,99.2,56.3z"/>
<path class="st3" d="M102.5,41c17.9-24.1,36.2,2.5,52.3,27c23.8,36.1,31.2,37.7,30.4,69.3c4.4-34.8-1.8-33.8-27-71.9
	C140.5,38.7,119.2,10.7,102.5,41z"/>
<path class="st4" d="M156.6,68c23.8,36.2,29.4,37.7,28.6,69.3c4.4-34.8-1.8-33.8-27-71.9c-9.6-14.5-20.2-29.3-30.6-35.1
	C138.1,42.2,147.8,54.8,156.6,68z"/>
<path class="st1" d="M96.3,14c21.4-32.1,71.5,11.7,76.5,33.4c-7.5-11.3-14.5-17.3-25.1-25.7c18.1,18.3,27.5,26.9,40.8,75
	C172.9,64.2,139.3,0.3,96.3,14z"/>
<path class="st2" d="M97.5,15.8c31.2-32.1,68.3,18.3,68.2,18.3C144.3,13.9,123.3,2.2,97.5,15.8z"/>
<path class="st1" d="M100.6,23.4c20.4-38.5,89.2,52,89.5,106.3c-7.6-38-59.1-133-88.9-93.3C99.4,33.5,97.8,26.2,100.6,23.4z"/>
<path class="st2" d="M102.3,25.5c20.7-29.7,73.6,31.9,82.1,86.5C158.5,26.2,115.3,12.8,102.3,25.5z"/>
<path class="st2" d="M190.4,99.9c-15.8-38.4-29.3-66.3-60.3-83.9C160.2,20.5,177.5,59.1,190.4,99.9z"/>
<path class="st4" d="M11.8,156.4c-18.3-36.1-12.1-38.3,11.2-90.7l3.2,37.5C4.2,117.5,4.4,133.5,11.8,156.4z"/>
<path class="st5" d="M185.5,90.7c-5.7-32-20.5-43.6-33.7-64.6C169.5,43.5,183.1,62.3,185.5,90.7z"/>
<path class="st2" d="M104.7,46.2c20.7-29.7,60,34.2,78.3,82.1C145.5,51.9,117.7,33.5,104.7,46.2z"/>
<path class="st5" d="M183.1,147.7c-5.7-32-20.5-43.5-33.7-64.6C167.1,100.5,180.7,119.3,183.1,147.7z"/>
<path class="st5" d="M111.1,48.5C131.2,35,136,77.3,149.2,98.4C131.6,80.9,135.1,44.2,111.1,48.5z"/>
<path class="st4" d="M98.1,19.1c29-23.4,62,30.3,60.9,28.1C132.3,3.1,106.4,6.3,98.1,19.1z"/>
<path class="st5" d="M154.8,59.7c-25.7-38.8-34.9-43.5-51.7-30.3C119.8,3.6,139.4,28.6,154.8,59.7z"/>
<path class="st1" d="M96,52.9c-14.2-19.2-24.5-7-34.4,11.9C51.1,85,46.8,107.5,31,126.8c9.8-19.8,9.3-19.5,13-37.2
	c-10.7,22.3-38,45.5-25.7,66.8c-24-27.2,5.2-62.6,32.2-101C64.1,36,84.8,17.1,96,52.9z"/>
<path class="st2" d="M95.8,54.6C74.9,34,62.6,58.6,45.3,99.8c2.7-8.9,5.8-20.3,8.3-29.2c-4.1,8.6-9.6,16.6-15.2,24.2
	c-13.6,18.4-27.9,35-23.8,54.7c-9.5-16.5,5.4-32.9,20.6-57.5C55.2,59.4,77.7,26.5,95.8,54.6z"/>
<path class="st3" d="M92.6,39.2c-17.9-24.1-36.2,2.5-52.3,27c-23.8,36.2-31.2,37.7-30.4,69.3c-4.4-34.7,1.8-33.8,27-71.9
	C54.6,36.9,75.9,8.9,92.6,39.2z"/>
<path class="st4" d="M38.5,66.2c-23.8,36.2-29.4,37.7-28.7,69.3c-4.4-34.7,1.8-33.8,27-71.9c9.6-14.5,20.2-29.3,30.6-35.1
	C57,40.4,47.3,53,38.5,66.2z"/>
<path class="st3" d="M98.8,12.2C77.4-19.9,27.3,23.9,22.3,45.6c7.5-11.3,14.5-17.3,25.1-25.7c-18.1,18.3-27.5,26.9-40.8,75
	C22.2,62.4,55.8-1.5,98.8,12.2z"/>
<path class="st4" d="M97.6,14C66.4-18.2,29.4,32.3,29.4,32.3C50.8,12.1,71.8,0.5,97.6,14z"/>
<path class="st1" d="M94.5,21.7C74.1-16.9,5.3,73.6,5,128C12.6,90,64.1-5,93.9,34.7C95.7,31.7,97.3,24.5,94.5,21.7z"/>
<path class="st3" d="M92.8,23.7C72-5.9,19.2,55.6,10.6,110.3C36.6,24.4,79.8,11.1,92.8,23.7z"/>
<path class="st4" d="M4.7,98.2C20.5,59.8,34,31.9,65,14.3C34.9,18.8,17.6,57.3,4.7,98.2z"/>
<path class="st5" d="M9.6,88.9c5.6-32,20.5-43.6,33.6-64.6C25.6,41.7,12,60.5,9.6,88.9z"/>
<path class="st2" d="M90.4,44.4c-20.7-29.7-60,34.3-78.3,82.1C49.6,50.1,77.5,31.8,90.4,44.4z"/>
<path class="st5" d="M12,145.9c5.6-32,20.5-43.6,33.7-64.6C28,98.7,14.4,117.5,12,145.9z"/>
<path class="st5" d="M84,46.8C63.9,33.3,59.1,75.6,45.9,96.6C63.6,79.2,60.1,42.4,84,46.8z"/>
<path class="st4" d="M97,17.3C68-6.1,35,47.6,36.1,45.4C62.8,1.3,88.7,4.5,97,17.3z"/>
<path class="st6" d="M40.3,57.9C66.1,19.1,75.3,14.3,92,27.6C75.3,1.8,55.7,26.8,40.3,57.9z"/>
<path class="st7" d="M56.3,31.4c-25.6,11.6-47,79.2-47,79.2C22.6,87,34.8,49.1,56.3,31.4z"/>
<path class="st7" d="M42.7,25.2C17.1,36.8,9.6,54.2,7.8,85.8C14.6,60.1,17.7,42.6,42.7,25.2z"/>
<path class="st7" d="M72.8,5.3c-28.1-0.9-42.5,11.4-58,39C32.2,24.3,42.7,9.9,72.8,5.3z"/>
<path class="st7" d="M94.1,21.2c-11.2-26-47.2-5.7-62.7,24.5C47.6,20.4,79.9-0.2,94.1,21.2z"/>
<path class="st6" d="M92.6,53c-17.5-12.6-33.2,17.3-38.1,51.3C66.5,71.8,73.3,48.6,92.6,53z"/>
</svg>
