<svg id="Layer_1" data-name="Layer 1" xmlns="http://www.w3.org/2000/svg" viewBox="0 0 178.74 154.12"><defs><style>.cls-1{fill:#0b0b09;}.cls-1,.cls-2,.cls-3,.cls-4,.cls-5,.cls-6,.cls-7,.cls-8{fill-rule:evenodd;}.cls-2{fill:#262321;}.cls-3{fill:#423e3b;}.cls-4{fill:#5c5653;}.cls-5{fill:#141211;}.cls-7{fill:#5c5754;}.cls-8{fill:#736e6b;}</style></defs><title>Hair1</title><path class="cls-1" d="M36.7,156c-4.9-10.79-13.07-33.38-18.19-49.81C15,95,15.21,89,14.67,82.3,14,73.45,12.93,66.73,22,60.6,16,57.28,13.78,55.06,11.69,46,14,51.25,19,58.19,23.4,59.29c-10.5-9.58-7-22.59-3-37.34-1.32,11.83-4.2,29.92,6.12,30.42-3.27-6.61-4.78-10.54-3.75-17.8,1.82,6.52,3.3,11.67,10,11-2.68-6.71-6.52-9.77-8.68-18.2,4.19,9.23,9,11.52,13.68,11.37-.89-9.82-1.87-12.66,1.32-22.34-.9,7.26-.77,15.65,5,19.66,6-10.15,8.46-10.9,17.08-11.85,27.28-3,13.95-20,54.79-20C99.38,7.5,93.7,5.47,85.67,19.67,97.67,14.39,122,3,141,1.88c-10.12,2.53-15.07,8.78-16.06,14.27,17.84-1.21,12.32.22,19,12.21,9.34-1.24,11.68-6.39,12.64-14.48,3.89,5.66-1.76,13.95-5,19.65,7.52-.74,6.39,1.61,7.63,7.45,2-5.17,3.44-9.2,3.16-20.27,2.78,4.93,3.39,13.14-.53,24,5.27-4.59,7.71-8.62,5.53-19.44,5.65,12.89-4.08,26-2.5,29.06,11.64-4,15.64,1.26,13,10,7.13,0,6.11-.62,12.64-3.52-3.37,4.3-4.79,3.77-10.79,6.21.75,1.94,8.57,2.91,9.74,13-2.67-5.33-4.56-8.09-11.85-9.52,3.8,4.21,2.58,3.9,8.16,7-2.73-.75-5-1.35-7.63-2.28,5.85,7.09,3.91,22.35-.34,28.45,1.61-4.5,1.06-13.88,0-18.2-1.31,5.49-.71,19.3-2.3,27.44-.75,3.81-2.93,4.19-3.82,7.59-3.61,13.78-7.21,25.27-14.86,34,9.14-26.47,4.26-21.51,2.56-39.91-.76-8.17-.83-10.41-4.27-22.22-2.2-7.55-5.36-15.77-10.13-21.7-8.48,0-30.52.57-54-1.2-22-1.66-43.37-5.78-48.78-5.41,7.73,2.07,7.56,2.82,15.66,3.92-10.83-.17-8.9.63-19.56-1.21-1.2,4.47-9.65,5,3.24,26.65a36.72,36.72,0,0,1-10-10.13c3.68,9.76,5.33,16.76,5.24,23.12-.1,7.22-2.15,13.7-.51,24-1-2-2-3.8-2.89-5.79C32.64,136.25,35.18,144.67,36.7,156Z" transform="translate(-11.69 -1.88)"/><path class="cls-2" d="M90.61,67.89c10.89.13,43.66,4.52,49.81-4.08a22.7,22.7,0,0,0,3-18.07c-5.9-23.21-29-12.62-15.6-41.09-33,28.36,4.42,26-14,54.85,2.26-6.93,2.15-10.66.28-19.57C113.85,55.62,106,63,90.61,67.89Z" transform="translate(-11.69 -1.88)"/><path class="cls-3" d="M125.26,10c-19.13,17.25,18.56,44.61-20.8,58.51C142.63,49.7,101.71,28.56,125.26,10Z" transform="translate(-11.69 -1.88)"/><path class="cls-2" d="M130.46,24.44c17.5,14.75,22.8,29,7.66,45.39C167,53.39,157.63,39,130.46,24.44Z" transform="translate(-11.69 -1.88)"/><path class="cls-3" d="M126.36,26c18.86,15.6,16.77,33.74.81,43.45C144.56,64.58,148.05,40.24,126.36,26Z" transform="translate(-11.69 -1.88)"/><path class="cls-3" d="M140.39,31.33c13.76,14.1,11.62,30.2.73,38.5C156.52,65.56,159.62,44,140.39,31.33Z" transform="translate(-11.69 -1.88)"/><path class="cls-3" d="M160.24,43.16c5,14.24-3.69,24.71-17.35,26.55C155.41,71.19,167.53,57.33,160.24,43.16Z" transform="translate(-11.69 -1.88)"/><path class="cls-3" d="M123.45,27.74c8.67,19,7.54,31.14-14.58,41.49C143.65,63.09,141.13,49.49,123.45,27.74Z" transform="translate(-11.69 -1.88)"/><path class="cls-4" d="M125.26,9.82c-8.33,26.38,18.28,17.53,11.77,46C140.06,28.35,112.72,34.63,125.26,9.82Z" transform="translate(-11.69 -1.88)"/><path class="cls-5" d="M71.34,64.45C84,13.18,85.42,20.56,123.76,6.05c-32.29,15.46-18.3,30.7-26.28,48.08,4.76-2,10.83-7.88,13.41-11.94C104.87,61,94.11,69.91,71.34,64.45Z" transform="translate(-11.69 -1.88)"/><path class="cls-6" d="M71.89,55.09C70.68,35.19,75,26.29,90.77,11,78.28,28.9,76.21,35.1,71.89,55.09Z" transform="translate(-11.69 -1.88)"/><path class="cls-2" d="M114.31,8.31C59.6,42.77,98.65,53.14,72.71,63.81,88.71,49.91,61.47,33.51,114.31,8.31Z" transform="translate(-11.69 -1.88)"/><path class="cls-2" d="M104.6,17.78C74.7,38.56,96.12,62,75.86,65.53,105.92,64.57,87.29,39.47,104.6,17.78Z" transform="translate(-11.69 -1.88)"/><path class="cls-3" d="M80.23,65.31c19.91-.63,8.62-25,18.53-39.2C87.07,39.78,97.58,62.1,80.23,65.31Z" transform="translate(-11.69 -1.88)"/><path class="cls-7" d="M146.47,35.26c13.89,12.62,7.84,26.8-.66,33.28C156.87,63.81,161.48,45.15,146.47,35.26Z" transform="translate(-11.69 -1.88)"/><path class="cls-8" d="M128.11,36.84c9.78,14.81-.3,27.5-10.48,32.25C129.79,66.5,139.78,49.2,128.11,36.84Z" transform="translate(-11.69 -1.88)"/><path class="cls-3" d="M127.93,4.5c-13.42,6.21-20.32,12-23.41,19.8-2.46,6.18,3,17.58-1.5,23.43,7.28-5.31,1.91-14.48,4.42-22.92C109.4,18.25,116.2,11.46,127.93,4.5Z" transform="translate(-11.69 -1.88)"/><path class="cls-7" d="M86.39,65.44c19.7-2.31,16.78-6.09,24.69-21.07C101.33,59,103.2,60.79,86.39,65.44Z" transform="translate(-11.69 -1.88)"/><path class="cls-6" d="M26.78,60.4C6,69.86,26,119.83,31.71,137,30,123.76,27.33,113.16,26,100c2.7,9.73,3.62,13.87,7.67,23.45,1-15.46-10.91-53.31-1.77-56.52,3.32-1.17,10.44-.32,18.19.49C40.6,65.4,33.92,62.82,26.78,60.4Z" transform="translate(-11.69 -1.88)"/><path class="cls-6" d="M20.49,63.36c-8,7.63-7,22.07,1.09,52.48C18.09,93.62,16.07,77.55,20.49,63.36Z" transform="translate(-11.69 -1.88)"/><path class="cls-2" d="M25.87,56.88c3.29,3.28,14.48,8.2,33.66,6.45C52.9,61.76,40.78,59.46,34.9,55.8c14.64,1.4,24.47-2.7,32.57-10.75-12.75,6.17-18.26,6-31.2,8,9.5-7.71,21.09-9.95,37.91-14.52C54.16,40.93,32.83,40.55,25.87,56.88Z" transform="translate(-11.69 -1.88)"/><path class="cls-3" d="M27.43,54.91c11-13,16.62-14.72,37.23-14C43.73,41.66,39.93,44.93,27.43,54.91Z" transform="translate(-11.69 -1.88)"/><path class="cls-3" d="M70.05,42.82C63.46,50.6,53.42,55.05,41.12,54.61,53.62,54.17,62.59,48.77,70.05,42.82Z" transform="translate(-11.69 -1.88)"/><path class="cls-3" d="M64.48,60.62c-10.67,4.13-22.2,4-32.55-1.23C43,63.94,54.22,62.83,64.48,60.62Z" transform="translate(-11.69 -1.88)"/><path class="cls-6" d="M72,40.35C62.71,45.9,50.63,51.71,38.31,51.74,50.63,48.88,55.7,44.55,72,40.35Z" transform="translate(-11.69 -1.88)"/><path class="cls-7" d="M27.8,57.12c21.46,4.25,34.75.7,46.08-16.57C59.3,59.7,40.26,55.12,27.8,57.12Z" transform="translate(-11.69 -1.88)"/><path class="cls-6" d="M25.2,61.31c2.55,16.52,3.3,24.82,15.88,35.28C33.29,84.32,30.87,73.2,25.2,61.31Z" transform="translate(-11.69 -1.88)"/><path class="cls-6" d="M30.28,60.11c2.55,13.44,3.4,20.21,14,28.53C37.54,78.76,35.25,69.72,30.28,60.11Z" transform="translate(-11.69 -1.88)"/><path class="cls-6" d="M42.3,39.86C53.41,32.17,70,32.05,89.79,10.18,71.42,33.83,60.18,38.79,42.3,39.86Z" transform="translate(-11.69 -1.88)"/><path class="cls-5" d="M148.23,70.94c14.83-.23,33.16-1.27,32,21.4-1.3-6.13-1.82-10.51-7.93-13.65,3.37,9.09,1.4,27.1-1.65,36.35-2.06-14.91-.63-19.45-6.29-33.13,2.17,15.94,3,28.59.82,46.46C163.83,97.16,159.89,84.23,148.23,70.94Z" transform="translate(-11.69 -1.88)"/><path class="cls-3" d="M165.28,112.46c-2.44-19.06-4.71-35.72-17.13-43.23C164.47,72.1,168,94.41,165.28,112.46Z" transform="translate(-11.69 -1.88)"/><path class="cls-7" d="M165.76,105.3c-3-27.08-3.18-30.38-14.15-33.88C164.13,72.55,166.48,81.71,165.76,105.3Z" transform="translate(-11.69 -1.88)"/><path class="cls-6" d="M155.24,68.79c10.91-7.31,13.5-10.26,15.32-18.28-.22,7.44-.82,11.38-10.67,16.67,11.35-1.26,20.71-1.88,28.19-4.52-6.4,3.6-9.65,3.79-18.75,5.06,8.52-.12,12.7,1.21,15.47,5C178.23,68,167.62,71.11,155.24,68.79Z" transform="translate(-11.69 -1.88)"/><path class="cls-3" d="M175.08,90.73c-4.75-13.91-9.81-16.52-20.25-21.19C172,72.67,173.72,79.82,175.08,90.73Z" transform="translate(-11.69 -1.88)"/><path class="cls-3" d="M163.51,141.78c4.25-18.86,4.28-36,4.51-53C171.23,108.15,170,124.78,163.51,141.78Z" transform="translate(-11.69 -1.88)"/><path class="cls-3" d="M160.37,114.61c-.77-19.14-4.68-28.42-14.62-43.78C157.78,80.88,162.24,96.94,160.37,114.61Z" transform="translate(-11.69 -1.88)"/><path class="cls-7" d="M180.4,97.07C182,86.15,177.92,81,175.1,75.26,181.5,81,181.84,87.88,180.4,97.07Z" transform="translate(-11.69 -1.88)"/><path class="cls-7" d="M171.4,115.53c3.2-11.29,2.69-17.18-.2-27.33C176.32,95.5,175.86,105.41,171.4,115.53Z" transform="translate(-11.69 -1.88)"/><path class="cls-7" d="M172.86,54c-.42,8.24-7.87,11.45-14.61,14.54C168.54,67.28,174.47,62.76,172.86,54Z" transform="translate(-11.69 -1.88)"/></svg>