<?xml version="1.0" encoding="utf-8"?>
<!-- Generator: Adobe Illustrator 22.1.0, SVG Export Plug-In . SVG Version: 6.00 Build 0)  -->
<svg version="1.1" id="Layer_1" xmlns="http://www.w3.org/2000/svg" xmlns:xlink="http://www.w3.org/1999/xlink" x="0px" y="0px"
	 viewBox="0 0 186.1 181.8" style="enable-background:new 0 0 186.1 181.8;" xml:space="preserve">
<style type="text/css">
	.st0{fill:#472709;}
	.st1{fill:#2E1906;}
	.st2{fill:#542F0D;}
	.st3{fill:#3D2208;}
	.st4{fill:#693B10;}
	.st5{fill:#784413;}
	.st6{fill:#804A17;}
	.st7{fill:#94561C;}
	.st8{fill:#211204;}
</style>
<title>Hair2</title>
<path class="st0" d="M24.1,181.8c-7-18.8-3.5-35.5-14.1-49.1c-4.7-6.1-3.8-13.3-5.6-21.6v12.2c-4.6-10.6-7.4-35,1.2-58.4
	c-1.6,0.8-3.2,2.9-5.1,10.5C-1.2,57.4,14.3,43,30.1,33.5C47.4,7,83.2-6.1,114.6,2.8c-8.6-1.1-17.4-0.5-25.7,2
	c36.2,2.4,42.4-4.5,70.3,17.1c-3.7-1.3-7.4-2.5-11.1-3.8c32.1,27.2,41.1,32.3,37.1,74.4c0.1-12.7-2.4-19.2-4.6-25.8
	c1.9,32.1,5.1,54.3-4,76.8c1.6-7.9,1-16.1-0.4-19c-2.1,12.2-9.4,40.8-16.8,55.6c7.1-25.3,8.1-45.9,1.8-61l0.6,10.8
	c-4.8-16.9-4-22.9-18-35.1c3,5.8,3.2,14.4,11.1,24.3c-10.2-8.1-18.7-25.6-27.1-29.6c6.5,12.2,11.6,18.7,18.4,28
	c-24-14.6-28.6-34.1-52.7-45.9c1.7,3.2,7.9,7.3,9.4,10c9.2,16.6,10.7,21.7,29.2,39.7c-21.1-12.5-38.4-34.7-60.8-47.9
	C82,87,96.6,98.7,108,111.8C94.4,99.7,73.9,89.6,56.3,83.1c11.5,6.8,32.3,18.7,42.8,27c-16.9-8.3-24-9.8-35.9-16.8
	c13,18.6,28,24.7,46.1,36c-23.8-9.1-51-19.7-67.6-39.2c8.8,15.2,15.7,27.2,34.4,41.2c-26.9-8.9-35.2-18-51.5-31.9
	c4.6,16.3,5.2,22.2,18.3,34.8c-6.9-4.9-13.4-10.2-19.5-16c1.4,7.9,1.6,16,4.2,23.8c-3-3.1-4.2-8.1-5.4-12.7
	C21,140.5,18.4,154.9,24.1,181.8z"/>
<path class="st1" d="M28.9,52c29-8.4,42.5-27.2,71-31.1C72.7,31.8,65.5,45.9,28.9,52z"/>
<path class="st1" d="M26.1,49.9c16.3,20.3,31.6,6.7,57.7,38.2C61.2,65.8,38.4,74.1,26.1,49.9z"/>
<path class="st2" d="M27.8,51.2c32.1-11.3,50.3-31.5,75-31.4c-16.4-7.6-32.4-3.5-56.4,13.3c12.9-19.6,29.3-29,54.3-32.3
	C65.7,2.4,43.4,12,27.8,51.2z"/>
<path class="st3" d="M25.3,52.5c5.3,27,21.2,47.4,35.4,72c-11.8-13.6-28.1-22-37.4-48.2c-14.4,16.6-8.5,39.9-4.8,64.8
	C3.2,109.1-8.1,78.4,25.3,52.5z"/>
<path class="st4" d="M99.5,18.6c-18.5-2.4-26-3.4-53.2,15.9c16.9-8.6,25.6-15.3,42.5-15.1C72.1,25,59.9,32.7,37.7,45.8
	C49.9,40.9,82.5,20.1,99.5,18.6z"/>
<path class="st5" d="M54.3,34.9c26.3-14.3,28.6-20.6,58-12.2C84,10.7,78.1,17.1,54.3,34.9z"/>
<path class="st2" d="M59.1,20.7c18.6-17.1,73.4-21,96.1-1.5c-15.4-4.7-20.6-4.6-36.6-5.4c18.9,6.7,34.3,18.7,41.7,51.4
	C135.7,32.3,110.9,4.9,59.1,20.7z"/>
<path class="st4" d="M98.7,13.9c24,1.8,48.4,14.2,58.8,46C142.3,36.5,127.9,23.5,98.7,13.9z"/>
<path class="st4" d="M85.5,13.6c19.9-10.6,45.3-12.9,69.3,7.1C131.2,9.8,113.3,6.6,85.5,13.6z"/>
<path class="st6" d="M61.2,19.4c13.4-7.1,29.8-15.3,56.3-6C85.7,8.7,79.3,13.9,61.2,19.4z"/>
<path class="st4" d="M33.9,44.2C42.8,21.8,53.8,7.8,92.1,1.7C59.8,10.4,51.8,19.3,33.9,44.2z"/>
<path class="st7" d="M36,40.6C49.1,17.3,65.4,8.3,87.7,4.4C64.3,12,53.9,15.6,36,40.6z"/>
<path class="st3" d="M119.6,12.4c24.3,4.5,37.3,12.9,42.9,50.2C153.3,32.5,143.1,24,119.6,12.4z"/>
<path class="st3" d="M144.6,18.2c19.2,15.5,42.3,27,40.1,61.8C181.9,48.3,164.6,40.5,144.6,18.2z"/>
<path class="st2" d="M167,155.4c6.7-22.3,9.6-40.7,6-71.3c3.9,5.9,4.8,31.3,6,44.1c3.4-50.8-0.4-76-24.8-97.7
	C169.4,68.2,172.6,123.6,167,155.4z"/>
<path class="st4" d="M158.4,33.4c16.7,17.3,29,55.5,19.5,86.8C181.3,92.6,173.8,60,158.4,33.4z"/>
<path class="st4" d="M147.5,70c16.7,17.3,29,55.5,19.5,86.8C170.4,129.2,162.9,96.6,147.5,70z"/>
<path class="st7" d="M145.5,25.4c21.9,15.4,29.2,32.6,30.8,55.1C171.1,56.5,168.5,45.8,145.5,25.4z"/>
<path class="st7" d="M137.9,84.1c21.9,15.4,29.2,32.5,30.8,55.1C163.5,115.2,161,104.5,137.9,84.1z"/>
<path class="st7" d="M113.6,16.6c25.2,9.1,36.8,23.6,44.3,45C146.5,39.8,141.3,30.1,113.6,16.6z"/>
<path class="st7" d="M100.1,8.5c22.1-5.3,37.1-0.4,52.3,11.3C134.2,9.6,125.9,5.2,100.1,8.5z"/>
<path class="st1" d="M161.6,34.6c11.1,9,24.5,25.3,23.2,45.4C183.1,61.6,173.1,47.5,161.6,34.6z"/>
<path class="st1" d="M126.2,13.2c19.6,6.2,32.9,24.4,34.1,49C158.6,43.8,143.8,24.5,126.2,13.2z"/>
<path class="st2" d="M29.9,52.1c41.4-2.5,48.6-8.7,74.7,43.5C73.3,66,60.8,63.6,29.9,52.1z"/>
<path class="st2" d="M29.9,52.1c41.4-2.5,48.6-8.7,74.7,43.5C73.3,66,60.8,63.6,29.9,52.1z"/>
<path class="st4" d="M51.1,51.2c33.7-2,38.9,22.3,53.5,44.5C79.1,71.5,76.3,60.5,51.1,51.2z"/>
<path class="st7" d="M36.3,56.4c32.5,3.2,32.8,9,56.5,30.2C70.2,68.5,68.1,66.4,36.3,56.4z"/>
<path class="st2" d="M53.1,47.2c41.8-4.5,72,4.7,99.8,43.8c-8-24.5-20.4-45.2-43.2-51.1c17.2,1.1,33.2,11.3,42.3,20
	C119.8,12.1,88.9,26.3,53.1,47.2z"/>
<path class="st4" d="M63,42c40.4-16.3,75,13.2,90.1,42.2C136.3,62.2,110.2,41.2,63,42z"/>
<path class="st4" d="M83.2,31.2c25.9-10.8,50.8,3.4,71.3,28.8C133.6,41.8,113.8,25.5,83.2,31.2z"/>
<path class="st1" d="M156.4,72.9c9.9,10.6,18.6,35.6,14.5,56.2C170.5,108.2,164.2,88.3,156.4,72.9z"/>
<path class="st1" d="M93.4,71.7c14.2,3.1,35.5,18.8,43.8,38C125.1,92.8,108.6,79.9,93.4,71.7z"/>
<path class="st1" d="M27.5,88.8c4.3,13.9,21.6,33.9,41.5,40.7C51.1,118.7,37,103.3,27.5,88.8z"/>
<path class="st1" d="M24.2,57.7c-13.6,19.9-19.5,59.6-4.9,88.8C11.5,119.9,13.4,86.5,24.2,57.7z"/>
<path class="st1" d="M15.8,65.8C4.6,76.7-3.1,99.6,3.6,119.5C1.3,98.8,7.6,80,15.8,65.8z"/>
<path class="st3" d="M20.5,80.2c-3.7,15.2,1.7,38.7,17.9,52.1C25.5,115.8,21,96.6,20.5,80.2z"/>
<path class="st4" d="M27.8,54.7c13.1,42.5,34.3,59.8,56.5,68.4C62.2,105.8,53.2,96.5,27.8,54.7z"/>
<path class="st7" d="M44.1,73.8c20.4,34.1,30.7,40.4,57.7,51.5C83.6,114,66.2,107.3,44.1,73.8z"/>
<path class="st3" d="M27.1,48.4c-13-1.8-21.3,5.1-25.6,17.7c5.7-8.1,7-9.7,20.3-15.3c-11.3,7.6-15.7,16.9-20,30.7
	C15.2,56.6,27.5,48.8,27.1,48.4z"/>
<path class="st1" d="M26.9,50.3c-9,2.8-19.4,13-21.2,25.6C10.1,64.1,18.6,55.7,26.9,50.3z"/>
<path class="st1" d="M92.8,106.7c-13.3-7-23.9-12.2-40.6-26.9C58.4,92.3,76.9,101.5,92.8,106.7z"/>
<path class="st4" d="M89,97C76.3,77.9,50.7,75.7,34,61C40.3,73.6,74.5,88.9,89,97z"/>
<path class="st7" d="M103,107.4c-6.1-6.4-31.9-26.6-46.3-28.3C74.7,84.2,95.3,103.1,103,107.4z"/>
<path class="st7" d="M63.3,124.9c-7.4-4.9-31.6-27-35.7-40.9C35.6,100.9,57.7,118,63.3,124.9z"/>
<path class="st7" d="M34.6,129c-3.7-5.8-14.1-29.1-12.7-40.3C22.4,103.2,32.8,122.3,34.6,129z"/>
<path class="st8" d="M14.4,137.7C10.7,132-2.2,104.4,15,72.3C6.3,100.2,12.6,131.1,14.4,137.7z"/>
<path class="st8" d="M30.1,144.5c-4.8-4.9-22.8-29.4-12.3-64.3C14.9,109.3,27,138.3,30.1,144.5z"/>
<path class="st2" d="M74,51.1c23.5,18.7,55.1,21.1,72,57.4C129.5,56.8,103,53.2,74,51.1z"/>
<path class="st4" d="M53.1,47.7c36.5,0.1,74.4,10,92.2,54.4C128.9,50.5,92.4,43.5,53.1,47.7z"/>
<path class="st7" d="M79.2,52.7c30.1,6.1,38.9,22.3,53.5,44.5C113.6,72.2,104.4,62.1,79.2,52.7z"/>
<path class="st7" d="M53.3,48.3C72,38,107.5,36.2,132.1,51.6C109.3,42.4,79.6,41.3,53.3,48.3z"/>
<path class="st7" d="M154.2,59.5c12.8,11.6,23.5,38.2,18.3,61.1C173.5,100.7,166.5,77.7,154.2,59.5z"/>
<path class="st1" d="M87.9,34.9c21.1-3.6,48.5,5.5,66.4,30.2C135.8,48.9,115.1,36.9,87.9,34.9z"/>
<path class="st1" d="M101.3,49.3c28.8,5.5,39.8,21.3,47.9,50.7C137.6,75.6,131.2,59.8,101.3,49.3z"/>
<path class="st1" d="M28.4,47.3C30,27.7,38.9,16.7,59.1,5.4C41.9,18.9,37.4,24.2,28.4,47.3z"/>
<path class="st1" d="M28,47.6C22.8,38.6,9.4,45.7,4.4,57C12.3,47,21.6,45,28,47.6z"/>
<path class="st8" d="M54,110.6c-6-3.4-30-22.1-29.4-58.4C29.7,80.9,49.4,105.5,54,110.6z"/>
</svg>
