<svg id="Layer_1" data-name="Layer 1" xmlns="http://www.w3.org/2000/svg" viewBox="0 0 181.66 170.61"><defs><style>.cls-1{fill:#211105;}.cls-1,.cls-2,.cls-3,.cls-4,.cls-5,.cls-6{fill-rule:evenodd;}.cls-2{fill:#170c03;}.cls-4{fill:#784016;}.cls-5{fill:#995520;}.cls-6{fill:#381d09;}</style></defs><title>Hair9</title><path class="cls-1" d="M49,84.89c-3.78,11.8-3.64,33.06-3.26,64.57-1.93-8.74-1.84-12.76-4.19-16.2-.77,25.65-1.83,31.82,2.6,49.86-8.54-8.91-15.76-38.87-20.45-48.65-.31,3.9-.26,2.11,1.92,9.7C-8.9,101.86,28.16,34.44,61.23,33c36.58-19.6,92.33-24.91,120,32.87,12.92,27,20,63.24-1.41,100.13.49-3.75,1.62-6.71.92-8.57A149.84,149.84,0,0,1,160.32,188c8.58-30.59-1.15-45.18-27.84-70.8,3.78,7.56,11,19.74,16.22,27.84-14.63-13-27.86-20.82-46.48-34.18L115.89,132c-13.33-15.18-39.47-27.38-56.72-47.19,8.11,15,15.42,28.54,33.48,41.05C69.59,117.88,56.31,103,49,84.89Z" transform="translate(-11.79 -17.39)"/><path class="cls-1" d="M165.13,175c1.81-17.26,10.6-49.67-48-85.26,13.84,14.33,24.06,32.86,33.25,48.2-6.85-5.82-12.1-9.72-22.6-18.82L143.49,139c-20-14.69-31.67-24.89-49.62-42.17,8.79,12.09,18.69,21.65,28.54,32.91-18.36-13.06-52.11-39-68.2-59.37-3.51-4.44-10.12-31.24-7-32.58,35.24-15.15,151.14-15,135.3,85C178.93,145.29,179.35,166.78,165.13,175Z" transform="translate(-11.79 -17.39)"/><path class="cls-2" d="M43.43,46.14C32.66,48.82,22.7,58.36,18.71,68.71c6.18-8.82,8.81-11.81,16.06-14.38C14.25,71.71,12.4,100.64,17.5,120c1.08-28.82,5.7-45.18,21.23-64.76C19.11,81,6,125.29,46.25,168.66,21.53,129.5,28.29,83.8,48,51.11Z" transform="translate(-11.79 -17.39)"/><path class="cls-3" d="M43.43,46.14A34.41,34.41,0,0,0,22.54,61.93c6.71-6.81,11-10,18.2-12.57C17.54,67.27,14,87.6,17.23,114.92,16.7,89.8,16.28,74.32,42,51,22.4,76.67,4.49,123.81,44.77,167.18,8.9,124.12,22.25,84.61,46.25,50.3Z" transform="translate(-11.79 -17.39)"/><path class="cls-4" d="M48,58.5c-6.93,15.69-15,34.38-1.75,66.77-9.81-26.35-3.17-48.33,3.36-63.15Z" transform="translate(-11.79 -17.39)"/><path class="cls-4" d="M46.92,52.72C40,68.41,19.78,106.59,53,152.81,25,110.34,41.33,70.89,47.86,56.08Z" transform="translate(-11.79 -17.39)"/><path class="cls-5" d="M40.82,69c-4.83,15.23-8,45.2,8.14,74.68C37.25,116.8,36,96.89,40.82,69Z" transform="translate(-11.79 -17.39)"/><path class="cls-5" d="M50.22,61.65c-8,12.56-9.29,34.76-2.91,53.19C41.73,88,45.24,80.19,50.22,61.65Z" transform="translate(-11.79 -17.39)"/><path class="cls-5" d="M38.52,66.39c-18.72,27.12-16.8,62.19-1.77,92.27C26.1,131.35,24.23,95.82,38.52,66.39Z" transform="translate(-11.79 -17.39)"/><path class="cls-3" d="M158.62,101c11.4,35.45,14.95,42.34,2.66,85.24C176.54,146.93,178.8,136.63,158.62,101Z" transform="translate(-11.79 -17.39)"/><path class="cls-6" d="M52.18,47.76c34,15.16,64.57,17.22,85.75,34.87,22.75,19,40.34,58.68,17.26,86.18,19.75-30.21-6.62-57.26-25.85-72.73C113.48,83.34,70.71,75.64,52.18,47.76Z" transform="translate(-11.79 -17.39)"/><path class="cls-6" d="M61.79,44.35c42.42-9,129.39,8.16,106.23,77C153.69,61.72,93.48,63.28,61.79,44.35Z" transform="translate(-11.79 -17.39)"/><path class="cls-5" d="M60.92,53.28C110.8,72.09,162.26,78.79,164.61,145,158.27,72.28,92.6,72.21,60.92,53.28Z" transform="translate(-11.79 -17.39)"/><path class="cls-5" d="M63.58,57.91c29.76,22,71.24,26.7,90.85,60.48C141.81,84.46,106.34,81.58,63.58,57.91Z" transform="translate(-11.79 -17.39)"/><path class="cls-5" d="M53.48,44.58C81.78,67.46,161,48.88,168.64,127.9,168.43,53.49,89,58.34,53.48,44.58Z" transform="translate(-11.79 -17.39)"/><path class="cls-5" d="M77.78,46c52.07,7.33,86.82,28.33,92.15,61.58C170.2,74.3,139.48,45.19,77.78,46Z" transform="translate(-11.79 -17.39)"/><path class="cls-4" d="M52.1,48.46C56.19,84,84.22,98.93,106,119.36,88.43,97.72,65.62,72.4,52.1,48.46Z" transform="translate(-11.79 -17.39)"/><path class="cls-5" d="M62.48,66C79.34,87.92,93,105.92,108.23,121.81,89.09,99.05,84.47,85,62.48,66Z" transform="translate(-11.79 -17.39)"/><path class="cls-6" d="M62.85,62.25c24.81,20.33,40.65,48.25,62.51,65.14C106.39,91.54,94.23,83.89,62.85,62.25Z" transform="translate(-11.79 -17.39)"/><path class="cls-5" d="M77.5,69.84c19.72,9.87,36.47,24.64,55.82,59.63C114.33,102.72,99.88,86.92,77.5,69.84Z" transform="translate(-11.79 -17.39)"/><path class="cls-4" d="M56.79,59.6c19.72,9.87,36.47,24.65,55.82,59.63C93.62,92.48,79.18,76.68,56.79,59.6Z" transform="translate(-11.79 -17.39)"/><path class="cls-6" d="M50,43.49C94,39,170.52,43,189.2,93.27,177.12,22.09,88.62-2.42,50,43.49Z" transform="translate(-11.79 -17.39)"/><path class="cls-3" d="M51.68,46.88c22.52,14.4,52.94,18.75,78.77,29.27C102.51,58.94,73.91,58.8,54.32,45.85c41.63,1.51,77-6.9,111.51,26-23.86-35.18-73.44-33-112-28.7,35.2-39,87.37-20.1,117.4,11.11-38.42-50.58-99-43.61-123.56-11.83Z" transform="translate(-11.79 -17.39)"/><path class="cls-5" d="M74.12,29.15C125.6,19.31,166.83,48.27,179.24,73,169.5,41.39,111.87,9.36,74.12,29.15Z" transform="translate(-11.79 -17.39)"/><path class="cls-4" d="M56.48,41.25C86.7,20,141.45,32.79,171.71,64.5,137.2,39.63,101.75,31.9,56.48,41.25Z" transform="translate(-11.79 -17.39)"/><path class="cls-3" d="M126.3,73.93c34.7,17.49,37.07,40,39.21,76.14C168.45,112,160.48,86.75,126.3,73.93Z" transform="translate(-11.79 -17.39)"/><path class="cls-4" d="M160.6,60.06c23.17,19.44,41.58,47.76,22.27,96.51C188.1,104.53,165.28,70.33,160.6,60.06Z" transform="translate(-11.79 -17.39)"/><path class="cls-5" d="M158,58.9c18.67,14.08,37.29,49,27.53,81.83C188.76,97.1,174.26,81.93,158,58.9Z" transform="translate(-11.79 -17.39)"/><path class="cls-6" d="M106,87.18c15.73,19.68,23,26.89,35.21,49.42L135,117.85c15.91,12.24,17.31,13,26.41,31.24C155.06,115.64,132.87,103.42,106,87.18Z" transform="translate(-11.79 -17.39)"/><path class="cls-4" d="M106,85.48c24.19,22.09,43.42,23.27,54.24,58.78C155,110.67,132.87,101.71,106,85.48Z" transform="translate(-11.79 -17.39)"/><path class="cls-4" d="M107.42,86.62c14.47,23.41,22,22.26,35.4,52C135,109.15,125.4,105.92,107.42,86.62Z" transform="translate(-11.79 -17.39)"/><path class="cls-5" d="M96.78,77.88c18.22,18.93,33.53,20.89,40.35,49.87C134.67,100.59,117.45,92.27,96.78,77.88Z" transform="translate(-11.79 -17.39)"/><path class="cls-6" d="M171.31,86.61c2.76,35,8.44,48.53-7.38,96.56C184.71,154.73,184.18,121.45,171.31,86.61Z" transform="translate(-11.79 -17.39)"/><path class="cls-5" d="M173,86.61c2.24,28.32,11.1,39.6-1.72,78.5C184.74,141.22,181.18,114,173,86.61Z" transform="translate(-11.79 -17.39)"/><path class="cls-3" d="M107.42,123.25C83.22,101.17,64,100,53.18,64.46,58.43,98.07,80.54,107,107.42,123.25Z" transform="translate(-11.79 -17.39)"/><path class="cls-3" d="M86.81,123.24C64.38,103.59,43.8,88.94,47.94,50,39.29,87.94,60.3,109.92,86.81,123.24Z" transform="translate(-11.79 -17.39)"/></svg>