<svg xmlns="http://www.w3.org/2000/svg" viewBox="0 0 181.71 178.01"><defs><style>.cls-1{isolation:isolate;}.cls-2{fill:#1f0300;}.cls-10,.cls-11,.cls-12,.cls-2,.cls-3,.cls-4,.cls-5,.cls-6,.cls-7,.cls-8,.cls-9{fill-rule:evenodd;}.cls-3{fill:#4d423b;opacity:0.2;mix-blend-mode:multiply;}.cls-4{fill:#621f02;}.cls-5{fill:#400e01;}.cls-6{fill:#863715;}.cls-7{fill:#9c411a;}.cls-8{fill:#d1673a;}.cls-9{fill:#ab4a20;}.cls-10{fill:#ed8356;}.cls-11{fill:#e3703f;}.cls-12{fill:#e5d4af;}</style></defs><title>Hair5</title><g class="cls-1"><g id="Layer_1" data-name="Layer 1"><path class="cls-2" d="M89.26,55.8C90.48,15.52,47.34,23.27,21.8,39.87,41,25.06,66.13,19.56,81.08,27.46c9.25,4.89,14.62,14.92,12.31,31Z" transform="translate(-7.01 -14.99)"/><path class="cls-2" d="M75.61,37.17C33.34,27.38,14,50.26,7.16,86.62c1.59-40.22,26.41-65.56,75-56Z" transform="translate(-7.01 -14.99)"/><path class="cls-3" d="M75.72,53.91C109.39-11.57,210.47,61.62,156.77,193c1.59-21.42,9.78-45.23-5.48-58.83-13.74-12.27-20-10.57-40.26-16.45,6.49,4.94,7.62,5.42,14.58,7.88-29.73-1-60.82-5.93-77.95-30-1.57,11.32,1.49,21.59,4.11,29.76-5.73-5.38-7.41-9.25-9.58-15-1.67,6.37-4.57,27.75.07,69.49C37.07,166.53-2.24,62.59,75.72,53.91Z" transform="translate(-7.01 -14.99)"/><path class="cls-4" d="M69.76,36.75C82.05,12.86,108,13.08,124.23,16.9c25.74,6,48.43,24.44,51.1,37.8C165.5,42.53,144.81,24.54,106.53,23c32,5,82.91,23.88,77.9,63.94-.88-7.32-3.21-11.19-6.78-15.8,4.93,16.76,18.07,42.6,4.2,69.85,3.6-13.72,4.12-23,1.92-28.27-.33,19.32-3.54,22-8.61,29.7-6.36,9.7-8.86,29-15.59,46.41.89-23.17,11.53-47.33-10-63-14.88-10.85-36.12-9.16-56.36-15,6.49,4.94,9,6.3,16,8.75-29.73-1-46.11-8.2-63.24-32.25a69.06,69.06,0,0,0,1.67,28.71c-5.22-8.19-6-14-6.26-20.75-5,15.82-8.32,40.73-.46,79.2-8.4-11.24-10.09-31.07-15.1-43.84-4-2.93-5.53,4-7.34,2.57-4.94-3.94-4.51-25.43-2.71-34.32C18.29,86.05,23.28,75.55,33,62.58c-19.7,18.93-23.12,32-22.76,60.83-9-29.79,2.9-74.54,34-85.4C53.5,34.79,61.15,34,69.76,36.75Z" transform="translate(-7.01 -14.99)"/><path class="cls-5" d="M7.4,110.17C10.91,82.27,16.83,68,41.71,52,15.4,82.18,6.84,115.93,24.93,138.62,18.5,113,23.13,84.38,64.47,38,22.92,37.37,4,76,7.4,110.17Z" transform="translate(-7.01 -14.99)"/><path class="cls-6" d="M126.65,114.85c26.82,6.12,44.35,12.64,35.06,65.08,13.47-53.89,5.8-57.86-44.11-88.76,36.94,20.29,53.67,23.74,50.24,63.2,8.37-37.72-1.13-51.81-19.26-69.85C161,94.14,179.44,113.14,172,143.34c20.64-37.27,3-52.47-23.63-69.32C126.34,60,91.12,54.38,65.25,48.46,66.35,98.94,82,104.67,126.65,114.85Z" transform="translate(-7.01 -14.99)"/><path class="cls-6" d="M44.93,107.16c-5.21-3-5.93-7.89-8.34-12.46-7.23,17.59-6.47,30.68-1.2,62.42-17.95-44.45-12.53-104,34.46-119.43C47.46,65.89,43.71,73.85,44.93,107.16Z" transform="translate(-7.01 -14.99)"/><path class="cls-7" d="M42.7,104.38c-6.31-13.61-5-11.13-4.36-24.33-7,23.88-12,43-2.91,70.27C14.23,113.61,22.17,66.15,66,42.15,48.63,60.05,35.64,77.47,42.7,104.38Z" transform="translate(-7.01 -14.99)"/><path class="cls-6" d="M60.65,51.69c-17.9,40.33,5.77,59.53,50.42,73.88C79.92,111.82,58.92,87.53,60.65,51.69Z" transform="translate(-7.01 -14.99)"/><path class="cls-8" d="M61.35,48.19C54,90.09,86.12,121.9,122.28,129.77,89.37,119.53,59.62,84,61.35,48.19Z" transform="translate(-7.01 -14.99)"/><path class="cls-6" d="M164.64,140.27c-2.56-40.92-39.28-26.6-70.38-64.07,23,14.75,58.48,19.29,70,46.92-8.7-48.37-70.2-49.78-100.84-75.28C63.45,133.42,154.84,89.65,164.64,140.27Z" transform="translate(-7.01 -14.99)"/><path class="cls-5" d="M79.88,66.08c6,36,60.71,26.18,84.4,59.87C145.17,87.78,93.24,97.33,79.88,66.08Z" transform="translate(-7.01 -14.99)"/><path class="cls-9" d="M162.89,137.12c-3.26-41.28-76-33.25-80.53-69.67,21.61,9.49,58.82,25.24,73.88,39.91C145.43,85.25,98.29,34.12,63.45,47.84,77.46,128.51,153.09,86.5,162.89,137.12Z" transform="translate(-7.01 -14.99)"/><path class="cls-10" d="M65.43,44.61c13,80.69,92.95,35.52,99.79,100.83C154.5,79.54,68.67,130.37,65.43,44.61Z" transform="translate(-7.01 -14.99)"/><path class="cls-10" d="M67.35,44.08c6,36,57.37,26.46,81.06,53.75C127.08,66.89,80.71,75.33,67.35,44.08Z" transform="translate(-7.01 -14.99)"/><path class="cls-6" d="M59.6,46.79C72,35.35,81.1,30,93.41,27.44c40.18-8.3,84,22.43,88.39,45.61C169.3,54.15,148,49.76,126.48,42.59c17.68,10.52,21.2,7.93,35.71,24.86-5.92-4.37-4.14-4.19-11.56-6.3,18.6,17.1,26.54,23.28,28.37,53.22-6.23-24.11-31.6-39.89-50.77-45.87,6,7.41,6.35,6.73,10.15,15.75C115.93,61.8,93.39,46.05,59.6,46.79Z" transform="translate(-7.01 -14.99)"/><path class="cls-7" d="M68.05,43.21c18.61,32.34,51.07,10,86.84,63C124,44.72,94.21,60.54,68.05,43.21Z" transform="translate(-7.01 -14.99)"/><path class="cls-8" d="M65.77,42.16c-36.58,31.2-41.53,50.19-37.29,100C17.94,106,24.45,69.27,65.77,42.16Z" transform="translate(-7.01 -14.99)"/><path class="cls-9" d="M67,42.51C91.93,35.71,169.05,33,183.77,80.14,173.83,29.16,87.87,22.6,67,42.51Z" transform="translate(-7.01 -14.99)"/><path class="cls-9" d="M73.3,45.13C93.8,49,156,60.24,177.29,106.76,146.92,43.54,89.09,41.08,73.3,45.13Z" transform="translate(-7.01 -14.99)"/><path class="cls-11" d="M174.48,66.14c10.73,26.1,14.93,44.53,7.36,78.08C194.24,103.52,188.7,90.21,174.48,66.14Z" transform="translate(-7.01 -14.99)"/><path class="cls-11" d="M151.92,50.64c18.26,21.51,28,37.74,31.11,72C182.26,80.08,172.88,69.14,151.92,50.64Z" transform="translate(-7.01 -14.99)"/><path class="cls-10" d="M166.8,103.67c5.27,27.72,5.69,46.62-8.46,78C178.66,144.25,175.9,130.11,166.8,103.67Z" transform="translate(-7.01 -14.99)"/><path class="cls-12" d="M69.87,37.73c-16.79,1.17-32.7,4.88-47.24,20.72C37.69,39.51,47,36.48,69.87,37.73Z" transform="translate(-7.01 -14.99)"/><path class="cls-10" d="M125.38,67.3C152.18,84.11,167,115.62,169,144.85,171.92,112.59,153,76.57,125.38,67.3Z" transform="translate(-7.01 -14.99)"/><path class="cls-2" d="M59.86,39.64C28.32,54.52,10.14,83.05,8.21,112.29,5.25,80,28.17,47.68,59.86,39.64Z" transform="translate(-7.01 -14.99)"/><path class="cls-2" d="M35.85,62.3c-17.24,25.4-18.25,55.18-6.62,78.21C12.54,117.37,15.43,82.58,35.85,62.3Z" transform="translate(-7.01 -14.99)"/><path class="cls-2" d="M76.29,29.07c30.14-16.61,61.27-9.86,85.06,7.25C138.34,13.52,94.25,8.34,76.29,29.07Z" transform="translate(-7.01 -14.99)"/><path class="cls-6" d="M73.55,33.8C50,27.88,29.94,38.09,16.78,54.06,28.39,34.35,57.56,22.88,73.55,33.8Z" transform="translate(-7.01 -14.99)"/><path class="cls-2" d="M72.8,32.05c23.57-5.92,58.67-6.91,75,10.81C130.92,20.34,88.8,21.13,72.8,32.05Z" transform="translate(-7.01 -14.99)"/><path class="cls-8" d="M126.52,51.72c22,10.24,49.94,31.56,51.45,55.59C179.05,79.21,145.82,53.3,126.52,51.72Z" transform="translate(-7.01 -14.99)"/><path class="cls-5" d="M151.89,81.52c13.39,18.18,26.36,33.85,19.41,75C183.23,115.75,173.81,92.24,151.89,81.52Z" transform="translate(-7.01 -14.99)"/><path class="cls-11" d="M74.33,47.17c27.93,4,46,9.72,71,33.27C116.56,49.1,102.29,47.13,74.33,47.17Z" transform="translate(-7.01 -14.99)"/><path class="cls-11" d="M69.9,37.8c34.2-7.33,58.09-7,86,9.41C133.44,26.78,96,27.8,69.9,37.8Z" transform="translate(-7.01 -14.99)"/><path class="cls-5" d="M77.87,42.5c34.93-1.89,58.46,2.18,83.47,22.76C142.34,41.57,105.21,36.71,77.87,42.5Z" transform="translate(-7.01 -14.99)"/><path class="cls-5" d="M58.29,53.48c-16.83,41.07-1.69,57.84,34.47,65.71C59.86,109,46,89,58.29,53.48Z" transform="translate(-7.01 -14.99)"/></g></g></svg>