<?xml version="1.0" encoding="utf-8"?>
<!-- Generator: Adobe Illustrator 22.1.0, SVG Export Plug-In . SVG Version: 6.00 Build 0)  -->
<svg version="1.1" id="Layer_1" xmlns="http://www.w3.org/2000/svg" xmlns:xlink="http://www.w3.org/1999/xlink" x="0px" y="0px"
	 viewBox="0 0 186.9 184.5" style="enable-background:new 0 0 186.9 184.5;" xml:space="preserve">
<style type="text/css">
	.st0{fill:#453929;}
	.st1{fill:#574733;}
	.st2{fill:#6E5A41;}
	.st3{fill:#33291C;}
	.st4{fill:#856D50;}
	.st5{fill:#241D13;}
	.st6{fill:#1A150E;}
</style>
<title>Hair3</title>
<path class="st0" d="M84.2,98.8c-9.9,18.8-19.9,39.7-47.9,54.1c20.9-16.1,27.9-30.7,36.9-59.6c-7.5,14.8-14.4,28.5-26.6,43.7
	c6.6-14.6,12.8-28.9,19-43.7C55.2,107.8,38,137.8,28.9,146c-8.1,7.4-14.8,25,1.8,38.4C12.7,174.3,8,168.2,14.3,138.7
	c-2.3,7-4.3,13.1-6.1,20.2c0.9-20.6-5.6-22.8-7.4-35.2C-4,90.8,15,58,34.8,33.2c-6.4,4.1-12.5,12.4-20.6,25.4
	C41.1-2.4,79.6-2.5,119.8,19C101.1,0,82.4-1.6,58.8,6.4c26.7-11.3,48.8-8.6,66.1,14.8c5.1,1.6,8.5,0.8,15.4,4.9
	c18.3,11.1,21.1,13.9,33,31.2c-2.7-3.3-6.4-7.3-10-9.3l-9.6-5.5c35.9,30.7,33.3,35.8,33.3,80.3c-1.4-6-2.2-12-2.4-18.2
	c-8.7,27.6,10.8,31.8-6.3,58.5c0-2.1,1.1-6.2,0.8-9.2c-3.3,7-2,11.8-18.8,25.3c11.5-16.6,2.4-22.9-2-28.1
	c-14.1-16.4-8.4-38.7-16.4-61.7c1.5,11.7,11.2,20.5,12.4,32.3C147,84.3,102,86.1,84.2,98.8z"/>
<path class="st1" d="M127.3,28.1c-5.6,48.9-4.5,39.9-44.3,69.4C96.7,60.7,93,47.6,127.3,28.1z"/>
<path class="st2" d="M126.6,29.1c-10.8,25.9-17.2,41.1-38.8,67C118.1,69.3,122.7,60.3,126.6,29.1z"/>
<path class="st1" d="M51.4,140c34.5-30,42-109.7,74.3-112.6C72.4,12.9,84.7,96.7,51.4,140z"/>
<path class="st2" d="M125.7,27.5C79.2,14.8,81,85.9,62.1,121.8c12.9-11.9,17.3-56,33.7-79.4C102.8,32.5,114.2,25.2,125.7,27.5z"/>
<path class="st3" d="M132.8,28.8C98.3,1.7,73.6,5.2,53,11c26.4-4.3,37.3-5.7,70,12.8c-41.1-6.2-49,29.7-54.4,60.9
	c7.9-27,19.5-67.7,57.7-57.7c-22-1.6-27.7,28.4-33.1,45.6c6.8-15,16.4-48.2,36.3-43.2c5,36.5-14.6,47.9-40.2,69.7
	C119.4,80,135.6,66.3,132.8,28.8z"/>
<path class="st2" d="M105.3,35.9c-21.7,48.2-20.7,84.6-65.6,114.5C92.7,103.7,72.3,94.2,105.3,35.9z"/>
<path class="st2" d="M117.7,35.5C100.8,45,98.6,68.2,84.6,95.7C96.6,79.4,98.8,56.7,117.7,35.5z"/>
<path class="st4" d="M126.7,28.1c-16.8,9.5-22.1,46.7-41,65.7C109.2,77.5,107.8,49.3,126.7,28.1z"/>
<path class="st4" d="M120.2,26.3c-47.5-4-45.9,67.8-69.1,103.9C82.4,83.5,70.9,31.8,120.2,26.3z"/>
<path class="st1" d="M122.4,24.7C57.2,2.9,79.3,109.5,25.6,142.2C61.7,94.5,48.2,67.2,71,32.4C52.8,56.6,47.4,81.5,35.5,116
	C40,48.5,53-8.3,122.4,24.7z"/>
<path class="st3" d="M76.5,22.2C51.9,70.3,53,114.7,15.8,149.9C51.1,105.8,42,72.8,76.5,22.2z"/>
<path class="st2" d="M118.1,22.2C48-4.6,43.6,56.7,37.8,107.8C49.8,63.8,53.6,0.9,118.1,22.2z"/>
<path class="st2" d="M103.5,20.3C57.3,11.6,66.3,87.2,32,137C70.7,88.2,65.5,21.2,103.5,20.3z"/>
<path class="st4" d="M119.6,23.6C73,9.8,69.3,66.3,57.1,87.3C73.2,30.4,84.5,9.8,119.6,23.6z"/>
<path class="st4" d="M108,19.4c-51.2-17-63.8,35.4-67.6,57C39.8,44.9,59.2-0.1,108,19.4z"/>
<path class="st1" d="M65,17c-41,22.4-34.5,49.9-41,88.8c-7.2,30.5-19.8,52.3-1.9,67c-11.8-17.9,3.8-36.7,11.1-66.6
	C40.6,76.2,33.6,38.1,65,17z"/>
<path class="st2" d="M39,64.1c-3.7,62.5-31,67.3-21.9,96.2C5.2,129.1,32.1,116.5,39,64.1z"/>
<path class="st3" d="M10.3,147.1C-8,78.5,31.7,7.5,90.4,14.6c-34.8-1.9-59.7,28.3-72.6,66.8C13.5,94.2,15,98.2,12,115.2
	c9.8-20.5,12.3-30.3,16.7-52.7C25.4,99.2,21.2,112.8,10.3,147.1z"/>
<path class="st5" d="M16.2,55.2C41,1.1,73.5,1.1,119.9,21.8C64.4,4.1,45.5,9.1,16.2,55.2z"/>
<path class="st6" d="M9.5,147.3c-14.5-54.5-3-79,39.3-121.3C16,66.5-1.8,88.7,9.5,147.3z"/>
<path class="st6" d="M8.7,155.5c-2-42.1,13.5-35.2,16.9-85.5C26.2,108.5,15.3,125.2,8.7,155.5z"/>
<path class="st6" d="M9.5,126.8c0.4-45.5,1.9-38.4,23-77.6C18.9,82.3,16.3,91.4,9.5,126.8z"/>
<path class="st4" d="M90.7,14.7c-59.4-6.6-57,54.3-65.3,90.9C38.7,68.4,31,13.7,90.7,14.7z"/>
<path class="st1" d="M126.4,22.6c15.5,1,26.9,11.7,42.6,29.4C154.9,41.5,140.8,32.6,126.4,22.6z"/>
<path class="st1" d="M135.3,31.5c4.4,9.9,4.2,21.5,6.5,29.9c10.9,41.1,4.7,64.1,21.4,87c-8.2-23.4,9.8-38,0.6-73.8
	c10.2,15.5,12,26.5,11.5,42.1C198,69.6,171,69.4,135.3,31.5z"/>
<path class="st2" d="M177.5,112.1c5.8-40.2-21.4-48.5-39.2-78.9C169,60.1,188.6,82.8,177.5,112.1z"/>
<path class="st4" d="M178.1,106.9c5.8-40.2-15.4-50.2-39.8-73.7C173.3,55.8,189.2,77.6,178.1,106.9z"/>
<path class="st2" d="M135,33.5c2.1,25.5,2.8,38.5,6.8,65.6C131.8,69.3,131.7,62.7,135,33.5z"/>
<path class="st2" d="M141,47.1c16.9,51.4,0.8,72.8,26.5,108.5C136.7,131.5,149.3,86.7,141,47.1z"/>
<path class="st2" d="M137.2,32.9c25.1,30.9,38.4,58,22.7,106.3C163.1,91.6,153.3,67.1,137.2,32.9z"/>
<path class="st4" d="M139.1,36.6c21.2,26.1,34.3,55.3,21.1,96.1C169.1,97.6,162.9,67.9,139.1,36.6z"/>
<path class="st3" d="M162.3,66.5c14.5,35.6,9.9,47.1,5.8,62.9c-4.1,16,5,26.8,1.1,36.8c5.6-10.6,6.4-12.8,9.6-30.3
	c-2.7,21.8,0.9,24.7-15.3,39.9c10-13.1-5.8-22.6-0.8-45C167.7,108,170.3,98.1,162.3,66.5z"/>
<path class="st2" d="M169.3,87.5c3.9,29.1-2.1,44.9,2.5,73.2c1.5-10.2,3-19.8,4.1-30.1c5.7,8.3,6.1,15.5,5.5,26.5
	c6.2-12.7-1.2-28.7,1.6-51.7l-7.6,15.6C172.1,109.8,171.9,99,169.3,87.5z"/>
<path class="st4" d="M180,156.5c3.4-15.6-1.3-25.6-2.8-37.7C185.2,130.8,186.6,142.9,180,156.5z"/>
<path class="st4" d="M171.3,156.3c6.7-15-0.9-23,0.6-35.1C163.9,133.2,175.8,139.9,171.3,156.3z"/>
</svg>
