<?xml version="1.0" encoding="utf-8"?>
<!-- Generator: Adobe Illustrator 22.1.0, SVG Export Plug-In . SVG Version: 6.00 Build 0)  -->
<svg version="1.1" id="Layer_1" xmlns="http://www.w3.org/2000/svg" xmlns:xlink="http://www.w3.org/1999/xlink" x="0px" y="0px"
	 viewBox="0 0 181.9 193" style="enable-background:new 0 0 181.9 193;" xml:space="preserve">
<style type="text/css">
	.st0{fill:#301508;}
	.st1{fill:#451F0C;}
	.st2{fill:#733617;}
	.st3{fill:#0D0501;}
	.st4{fill:#944C28;}
	.st5{fill:#170A03;}
	.st6{stroke:#0D0501;stroke-width:0.22;stroke-miterlimit:22.93;}
</style>
<title>Hair6</title>
<path class="st0" d="M115.7,86.9c-16.1-1.4-26.5-6.7-42.7,0.6c-13.1-1.9-28.4-4.4-33.2,1c-3.1,3.5-5.9,9.3-2.4,21.4l-5.9-6
	c-3.1,14.3-4.2,18.7-3.6,33.3l-7.1-5.4c0.7,24.9,3.4,30.9,4.5,54.5c-10.8-18.7-5.7-41.1-17.2-49.4c-2.2-29.4-2.9-30.9,3.3-60.4
	l-7.1,3.8c1.8-4.3,3.9-8.5,6.3-12.4c-3.8,0.6-6.6,2.7-10.5,7c7.6-14.6,20.9-20.7,31.2-35.3c-5.2-0.7-9.1,2.2-12.7,4.4
	c7.3-15.8,16-18.4,28.6-23.5c-3.2-6-3.5-5.3-4.6-12.3c9.8,9.9,26.3,7.6,35.9,5.9c-4.2-3.9-7.8-6.4-6.5-14.1c3.1,7,7.4,7.6,13.3,9.3
	l-4-6.5c11.2,7.7,20.5,10.2,33.1,15c8.2,3.6,37.1,20.1,39.2,6.4c2.6,6.5,1.4,9.6-2.9,11.8c5.5,0.3,8.2-0.1,13.7-0.8l-7.2,3.3
	C175.8,49.1,172.8,56.9,176,79c-2.2-9.7-3.5-11.6-8.3-20.3c2.9,9.6,7.4,21.5,8.6,28.8c1.7,11-2.2,19.7-2.9,28.2
	c-0.4,4,2.1,7.9,1.5,11.8c-1.7,9.7-2.9,19.5-3.6,29.4c-1.2-6.2-2-12.5-2.4-18.8c-2.6,12.3-1.7,28.8-11,55
	c1.4-12.2,0.5-22.9,0.4-34.1c-0.2-12.6,0.2-25.9-1.7-41.3c-3.5-28.7-12.9-34.9-20.7-34.3C128.6,83.8,120,87.3,115.7,86.9z"/>
<path class="st1" d="M52.6,14.8c15.6,2.2,16.2,2.5,31.2,8.2c-22-1.5-32.3-4.3-54.3,6.4c18.2-2.4,45.7,1.5,58.5,1.8
	c-6.4,1.6-19.8,1.7-37.4,5.9c43.8,2.3,38.2-4.6,81.6,10.4C110.7,15.6,78.3,8.8,52.6,14.8z"/>
<path class="st2" d="M130.5,43.7c-16.7-18.2-28.4-29.1-67.4-29.1C97.1,20.9,104.1,30.1,130.5,43.7z"/>
<path class="st2" d="M56.9,38.9c17.7-6.3,43.6-8.7,67.9,4.2C99.5,35,75.8,33.6,56.9,38.9z"/>
<path class="st3" d="M62.5,30c54.6-2.4,84.9,21.5,87.2,51.5c-0.7-1.2,0.2,1.4-1,1C109.7,71,93.4,34.4,62.5,30z"/>
<path class="st1" d="M149.8,82.7C107.7,57,115,40,62.5,30c52.2,4.6,63.9,9.4,89.3,50L149.8,82.7z"/>
<path class="st2" d="M62.5,30c40.7,4.6,63.6,11.8,88.4,51.2C114.6,40.5,91.1,35.5,62.5,30z"/>
<path class="st4" d="M86.3,32.2c24.6,11.2,45.2,25.8,62.3,49.4C121.8,53.3,109.4,46.5,86.3,32.2z"/>
<path class="st3" d="M71.1,32.5c-26.6-0.8-42.6,1.5-51.9,9.1C32.9,27.7,45.2,27.5,71.1,32.5z"/>
<path class="st1" d="M123.3,84c-10.8-0.4-20.3-20.1-32.2-31C76.7,39.6,59.9,33.2,36.7,32c30.3-2.3,48.4,2.4,63.5,12.2
	c9.5,6.2,17.8,14.4,27.1,24.2C134.5,75.9,131.7,84.3,123.3,84z"/>
<path class="st2" d="M44.6,31c35.5,2.1,51,11.1,68.9,30.3c14.8,16,11.6,19.7,7.7,17.5c-3.6-2-7.9-8.1-14.4-14.3
	C81.1,40.3,72.8,34.9,44.6,31z"/>
<path class="st4" d="M47.8,30.5c44.4,2.6,63.1,17.5,79.5,46C108.5,51.9,92.3,35.3,47.8,30.5z"/>
<path class="st4" d="M71,36.5c38.4,16.5,42,31.8,45.1,42.1C109.5,70.3,107.5,55.3,71,36.5z"/>
<path class="st3" d="M44.2,10.2c13.9,11.5,13.7,8.3,32.2,11.5c-20.7-1.8-18-1.9-38.7,3.2C55.7,17.6,56,23.9,44.2,10.2z"/>
<path class="st1" d="M72.7,2.6c2,12,18.4,12.3,34.4,18.8c13.1,5.3,26.9,21.5,32.2,31c-3.3-23.8-24.8-34.2-48.5-43l9.5,6.1
	C91.6,12.9,76.2,11,72.7,2.6z"/>
<path class="st3" d="M129.7,41.7C116.9,20.2,95.8,14,70.5,12.6C74.1,13.6,111.1,14.8,129.7,41.7z"/>
<path class="st5" d="M91.1,83.1c-24-20.2-34.4-34.2-73.4-27.2c9.4-5,14.4-5.5,25.2-6.4l-15.3-3.8c24.5-7.3,89.9,28.4,87.5,39.5
	C104.9,83.2,101.6,83.1,91.1,83.1z"/>
<path class="st4" d="M136.5,46.7c-9-22.4-27.4-28.4-51.9-34.7C87.9,13.6,122.2,19.4,136.5,46.7z"/>
<path class="st1" d="M112.6,80.4c-11.2,4.1-9.1,3.8-20.8,1.2C75.2,61.3,56.7,49,33.5,46c13.2-0.4,23.6,2.3,36.7,5.6
	c-21.9-11.6-31-9.4-55.2-12.1C66.9,30,79.9,39.7,112.6,80.4z"/>
<path class="st3" d="M115.2,84.3C108,57.1,75,26.3,33.3,33.1C71.8,38.4,87.3,41.7,115.2,84.3z"/>
<path class="st4" d="M109.3,83.4C98.8,54.7,74.7,36,39,37C82.1,42.5,95.3,58.7,109.3,83.4z"/>
<path class="st2" d="M102.8,82.4c-12.5-15.7-30.9-34-63.2-34.8C67.2,50,82.8,68.5,102.8,82.4z"/>
<path class="st4" d="M105.4,82.6C93.4,59.4,70.9,44.9,39.3,45.8c37.6,4.8,52.4,17.7,64.9,37.3C104.8,84,105.3,83.7,105.4,82.6z"/>
<path class="st1" d="M95.9,80.1C81.3,73.5,66.3,59.3,46,57.7l9.3,5.1c-20-6.3-31.6-8.4-49.4-0.6c5.3-0.6,9.5-1.2,16.3-0.6
	c-6.8,1.6-13.5,3.2-20.2,9.7c16.7-4.5,25.9-4.1,34.7,0.6c-5.1,0-10.2-0.4-15.2-1.2c10.8,3.8,15.6,7.2,18.7,13.3
	c1,2,12.5-6.3,29.1,1.5C73.2,82.8,76.4,77.5,95.9,80.1z"/>
<path class="st2" d="M8.9,59.8c29-4.7,55.4-1,65.6,24.5C54.2,63.8,45.1,61.2,8.9,59.8z"/>
<path class="st4" d="M8.9,59.8c29-4.7,52.6-2.2,67.8,20.4C56.4,59.7,41.8,57.6,8.9,59.8z"/>
<path class="st2" d="M7.7,68c14-7.6,45.1-4.6,59.8,17C45.2,66.5,29.2,64.7,7.7,68z"/>
<path class="st2" d="M47.1,58.2c25.3-2.4,39.3,17.2,41.5,22.1C70.1,75.6,72.8,62.6,47.1,58.2z"/>
<path class="st4" d="M14.8,66.6c38.1-5.3,49.7,10,56,18.6C61.8,79.8,53.2,63.6,14.8,66.6z"/>
<path class="st5" d="M18.4,75c-22.5,13.3-0.9,83.7,5.3,107.8c-1.8-18.6-4.7-33.5-6.2-52.1c2.9,13.7,3.9,19.5,8.3,33
	c1.1-21.8-11.8-75-1.9-79.6c3.6-1.6,11.3-0.4,19.7,0.7C33.3,82,26.1,78.4,18.4,75z"/>
<path class="st6" d="M11.5,79.2C2.8,89.9,4,110.2,12.7,153C8.9,121.8,6.8,99.1,11.5,79.2z"/>
<path class="st3" d="M16.6,76.3c2.8,23.2,3.6,34.9,17.2,49.7C25.4,108.7,22.8,93,16.6,76.3z"/>
<path class="st3" d="M22.1,74.6c2.8,18.9,3.7,28.5,15.1,40.2C30,100.8,27.5,88.1,22.1,74.6z"/>
<path class="st1" d="M142.6,82.4c16.1-0.3,35.9-1.8,34.7,30.1c-1.4-8.6-2-14.8-8.6-19.2c3.7,12.8,1.5,38.2-1.8,51.2
	c-2.2-21-0.7-27.4-6.9-46.6c2.4,22.4,3.2,40.3,0.9,65.4C159.5,119.3,155.2,101.1,142.6,82.4z"/>
<path class="st2" d="M161.1,140.9C158.4,114,156,90.6,142.5,80C160.2,84,164.1,115.4,161.1,140.9z"/>
<path class="st4" d="M161.6,130.8c-3.2-38.1-3.4-42.8-15.3-47.7C159.8,84.7,162.4,97.6,161.6,130.8z"/>
<path class="st2" d="M171.7,110.3c-5.2-19.6-10.6-23.3-22-29.8C168.5,84.8,170.2,94.9,171.7,110.3z"/>
<path class="st2" d="M159.2,182.1c4.6-26.6,4.6-50.7,4.9-74.6C167.5,134.8,166.1,158.2,159.2,182.1z"/>
<path class="st4" d="M177.5,119.2c1.8-15.4-2.7-22.6-5.7-30.7C178.7,96.5,179,106.3,177.5,119.2z"/>
<path class="st4" d="M167.7,145.2c3.5-15.9,2.9-24.2-0.2-38.5C173,117,172.6,130.9,167.7,145.2z"/>
<path class="st3" d="M15.7,135.9c-6.7-22.4-10.9-54.9,7-58.3C8.5,91.4,14.6,118,15.7,135.9z"/>
<path class="st1" d="M149.4,71.5c-5.4-15.5-8.8-33.6-21.1-45.1C153.5,32.2,156.3,51.8,149.4,71.5z"/>
<path class="st2" d="M149.4,71.5c2.4-20.3-3.9-34.1-8.6-41.3C158,41.2,158.3,59,149.4,71.5z"/>
<path class="st1" d="M152.1,78.3c9.5-1.2,16.4,2.3,22.5,10.3C173.2,76.6,164.5,58.7,152.1,78.3z"/>
<path class="st2" d="M175.3,91.2c-4.3-13.4-8.1-17.7-23.9-14.7C170.7,70.1,171.6,76.3,175.3,91.2z"/>
<path class="st2" d="M173.7,70.5c-4.3-13.4-7.7-23.9-21.1-30.7C173.4,47,170,55.6,173.7,70.5z"/>
<path class="st2" d="M156.2,43.8c7,10.8,3.1,19-5.6,31.9C154.4,62.7,160.5,54.6,156.2,43.8z"/>
<path class="st2" d="M171.1,73c-3.5-6.9-10.8-9.4-18.5,5C159.8,58.5,167.1,64.5,171.1,73z"/>
<title>Hair6</title>
<path class="st0" d="M117.5,102.1c-16.1-1.4-26.5-6.7-42.7,0.6c-13.1-1.9-28.4-4.4-33.2,1c-3.1,3.5-5.9,9.3-2.4,21.4l-5.9-6
	c-3.1,14.3-4.2,18.7-3.6,33.3l-7.1-5.4c0.7,24.9,3.4,30.9,4.5,54.5c-10.8-18.7-5.7-41.1-17.2-49.4c-2.2-29.3-2.9-30.9,3.3-60.4
	l-7.1,3.8C7.7,91.1,9.8,87,12.3,83c-3.8,0.6-6.6,2.7-10.5,7c7.6-14.6,20.9-20.7,31.2-35.3c-5.2-0.7-9.1,2.2-12.7,4.4
	c7.3-15.8,16-18.4,28.6-23.5c-3.2-6-3.5-5.3-4.6-12.3c9.8,9.9,26.3,7.6,35.9,5.9c-4.2-3.9-7.8-6.4-6.5-14.1c3.1,7,7.4,7.6,13.3,9.3
	l-4-6.5c11.2,7.7,20.5,10.2,33.1,15c8.2,3.6,37.1,20.1,39.2,6.4c2.6,6.5,1.4,9.6-2.9,11.8c5.5,0.3,8.2-0.1,13.7-0.8l-7.2,3.3
	c18.8,10.7,15.8,18.4,18.9,40.6c-2.2-9.7-3.5-11.6-8.3-20.3c2.9,9.6,7.4,21.5,8.6,28.8c1.7,11-2.2,19.7-2.9,28.2
	c-0.4,4,2.1,7.9,1.5,11.8c-1.7,9.7-2.9,19.5-3.6,29.4c-1.2-6.2-2-12.5-2.4-18.8c-2.6,12.3-1.7,28.8-11,55
	c1.4-12.2,0.5-22.9,0.4-34.1c-0.2-12.6,0.2-25.9-1.7-41.3c-3.5-28.7-12.9-34.9-20.7-34.3C130.3,99,121.8,102.4,117.5,102.1z"/>
<path class="st2" d="M132.2,58.9c-16.7-18.2-28.4-29.1-67.4-29.1C98.8,36.1,105.8,45.3,132.2,58.9z"/>
<path class="st2" d="M58.6,54.1c17.7-6.3,43.6-8.7,67.9,4.2C101.2,50.2,77.6,48.8,58.6,54.1z"/>
<path class="st3" d="M64.3,45.2c54.6-2.4,84.9,21.5,87.2,51.5c-0.7-1.2,0.2,1.4-1,1C111.4,86.2,95.1,49.6,64.3,45.2z"/>
<path class="st1" d="M151.5,97.9c-42.1-25.7-34.8-42.7-87.2-52.7c52.2,4.6,63.9,9.4,89.3,50L151.5,97.9z"/>
<path class="st4" d="M88,47.3c24.6,11.2,45.2,25.8,62.3,49.4C123.5,68.5,111.1,61.7,88,47.3z"/>
<path class="st3" d="M72.9,47.6c-26.6-0.8-42.6,1.5-51.9,9.1C34.6,42.9,46.9,42.7,72.9,47.6z"/>
<path class="st1" d="M125,99.2c-10.8-0.4-20.3-20.1-32.2-31c-14.5-13.4-31.3-19.8-54.4-21c30.3-2.3,48.4,2.4,63.5,12.2
	c9.5,6.2,17.8,14.4,27.1,24.2C136.3,91.1,133.4,99.5,125,99.2z"/>
<path class="st2" d="M46.3,46.2c35.5,2.1,51,11.1,68.9,30.3c14.8,16,11.6,19.7,7.7,17.5c-3.6-2-7.9-8.1-14.4-14.3
	C82.8,55.5,74.5,50,46.3,46.2z"/>
<path class="st4" d="M49.5,45.6c44.4,2.6,63.1,17.5,79.5,46C110.2,67.1,94,50.5,49.5,45.6z"/>
<path class="st4" d="M72.8,51.7c38.4,16.5,42,31.8,45.1,42.1C111.2,85.5,109.2,70.5,72.8,51.7z"/>
<path class="st1" d="M92.5,24.6l9.5,6.1c-8.7-2.6-24-4.4-27.6-12.9c2,12,18.4,12.3,34.4,18.8c13.1,5.3,26.9,21.5,32.2,31"/>
<path class="st3" d="M131.4,56.8c-12.8-21.5-33.9-27.7-59.2-29.1"/>
<path class="st5" d="M92.8,98.3c-24-20.2-34.4-34.2-73.4-27.3c9.4-5,14.4-5.5,25.2-6.4l-15.3-3.8c24.5-7.3,89.9,28.5,87.5,39.5
	C106.6,98.4,103.3,98.3,92.8,98.3z"/>
<path class="st1" d="M114.3,95.6c-11.2,4.1-9.1,3.8-20.8,1.2C76.9,76.5,58.5,64.2,35.2,61.2c13.2-0.4,23.6,2.3,36.7,5.6
	c-21.9-11.6-31-9.4-55.2-12.1C68.6,45.2,81.6,54.8,114.3,95.6z"/>
<path class="st3" d="M117,99.4c-7.2-27.2-40.3-58-81.9-51.2"/>
<path class="st2" d="M111,98.5c-12-32.6-41.5-52.3-85.8-44.8C63.2,55.4,84.3,59.9,111,98.5z"/>
<path class="st4" d="M111,98.5c-10.5-28.7-34.6-47.3-70.3-46.3C83.8,57.7,97,73.9,111,98.5z"/>
<path class="st2" d="M104.5,97.6C92,82,73.6,63.6,41.3,62.9C68.9,65.2,84.6,83.6,104.5,97.6z"/>
<path class="st4" d="M107.2,97.8C95.1,74.6,72.6,60.1,41,61c37.6,4.8,52.4,17.7,64.9,37.3C106.5,99.2,107,98.8,107.2,97.8z"/>
<path class="st1" d="M97.6,95.3C83,88.7,68,74.4,47.8,72.9l9.3,5.2c-20-6.3-31.6-8.4-49.4-0.6c5.3-0.6,9.5-1.2,16.3-0.6
	c-6.8,1.6-13.5,3.2-20.2,9.7c16.7-4.5,25.9-4.1,34.7,0.6c-5.1,0-10.2-0.4-15.2-1.2c10.8,3.8,15.6,7.2,18.7,13.3
	c1,2,12.5-6.3,29.1,1.5C74.9,98,78.1,92.7,97.6,95.3z"/>
<path class="st2" d="M10.7,75c29-4.7,55.4-0.9,65.6,24.5C55.9,79,46.8,76.4,10.7,75z"/>
<path class="st4" d="M10.7,75c29-4.7,52.6-2.2,67.8,20.4C58.2,74.9,43.6,72.8,10.7,75z"/>
<path class="st2" d="M9.5,83.2c14-7.6,45.1-4.6,59.8,17C46.9,81.7,31,79.9,9.5,83.2z"/>
<path class="st4" d="M16.5,81.8c38.1-5.3,49.7,10,56,18.6C63.5,94.9,55,78.7,16.5,81.8z"/>
<path class="st5" d="M20.1,90.2c-22.5,13.3-0.9,83.7,5.3,107.8c-1.8-18.6-4.7-33.5-6.2-52.1c2.9,13.7,3.9,19.5,8.3,33
	c1.1-21.8-11.8-75-1.9-79.6c3.6-1.6,11.3-0.4,19.7,0.7C35.1,97.2,27.8,93.6,20.1,90.2z"/>
<path class="st6" d="M13.3,94.3c-8.7,10.8-7.6,31.1,1.2,73.9C10.7,136.9,8.5,114.3,13.3,94.3z"/>
<path class="st3" d="M18.4,91.5c2.8,23.2,3.6,34.9,17.2,49.6C27.1,123.9,24.5,108.2,18.4,91.5z"/>
<path class="st3" d="M23.9,89.8c2.8,18.9,3.7,28.5,15.1,40.2C31.8,116,29.3,103.3,23.9,89.8z"/>
<path class="st1" d="M144.3,97.6c16.1-0.3,35.9-1.8,34.7,30.1c-1.4-8.6-2-14.8-8.6-19.2c3.7,12.8,1.5,38.2-1.8,51.2
	c-2.2-21-0.7-27.4-6.9-46.6c2.4,22.4,3.2,40.2,0.9,65.4C161.2,134.5,157,116.3,144.3,97.6z"/>
<path class="st2" d="M162.8,156.1c-2.6-26.9-5.1-50.3-18.6-60.8C161.9,99.2,165.8,130.6,162.8,156.1z"/>
<path class="st4" d="M163.3,146c-3.2-38.1-3.4-42.8-15.3-47.7C161.6,99.9,164.1,112.8,163.3,146z"/>
<path class="st2" d="M173.4,125.5c-5.2-19.6-10.6-23.3-22-29.8C170.2,100,172,110.1,173.4,125.5z"/>
<path class="st2" d="M160.9,197.3c4.6-26.6,4.6-50.7,4.9-74.6C169.3,150,167.9,173.4,160.9,197.3z"/>
<path class="st4" d="M179.2,134.4c1.8-15.4-2.7-22.6-5.7-30.7C180.4,111.7,180.8,121.4,179.2,134.4z"/>
<path class="st4" d="M169.4,160.4c3.5-15.9,2.9-24.2-0.2-38.5C174.8,132.2,174.3,146.1,169.4,160.4z"/>
<path class="st3" d="M17.4,151c-6.7-22.4-10.9-54.9,7-58.3C10.2,106.6,16.4,133.2,17.4,151z"/>
<path class="st1" d="M151.2,86.7c-5.4-15.5-8.8-33.6-21.1-45.1C155.2,47.4,158,67,151.2,86.7z"/>
<path class="st2" d="M151.2,86.7c2.4-20.3-3.9-34.1-8.6-41.4C159.8,56.4,160,74.2,151.2,86.7z"/>
<path class="st1" d="M153.8,93.4c9.5-1.2,16.4,2.3,22.5,10.3C175,91.8,166.3,73.8,153.8,93.4z"/>
<path class="st2" d="M177,106.4c-4.3-13.4-8.1-17.7-23.9-14.7C172.5,85.3,173.3,91.5,177,106.4z"/>
<path class="st2" d="M175.4,85.6c-4.3-13.4-7.7-23.9-21.1-30.7C175.1,62.2,171.7,70.8,175.4,85.6z"/>
<path class="st2" d="M157.9,59c7,10.8,3.1,19-5.6,31.9C156.1,77.8,162.2,69.8,157.9,59z"/>
<path class="st2" d="M172.8,88.1c-3.5-6.9-10.8-9.4-18.5,5C161.6,73.7,168.8,79.7,172.8,88.1z"/>
<path class="st4" d="M130.5,43.7c-14.7-16.1-37.9-25.8-61.4-27C99.1,23.5,111.6,31.7,130.5,43.7z"/>
<path class="st2" d="M129.7,45c-19.8-14.5-51.4-27-86.2-19.9C77.9,24.3,108,31.3,129.7,45z"/>
<path class="st4" d="M114,36.4C98.6,24.7,76.8,20,56,22.9C83.4,23.9,95.5,29,114,36.4z"/>
<path class="st2" d="M139.3,52.4c-3.3-23.8-24.8-34.2-48.5-43C94,11.4,127.9,23.8,139.3,52.4z"/>
<path class="st2" d="M109.3,83.4c-12-32.6-41.5-52.3-85.8-44.8C61.4,40.2,82.6,44.7,109.3,83.4z"/>
</svg>
