<?xml version="1.0" encoding="utf-8"?>
<!-- Generator: Adobe Illustrator 22.1.0, SVG Export Plug-In . SVG Version: 6.00 Build 0)  -->
<svg version="1.1" id="Layer_1" xmlns="http://www.w3.org/2000/svg" xmlns:xlink="http://www.w3.org/1999/xlink" x="0px" y="0px"
	 viewBox="0 0 200 200" style="enable-background:new 0 0 200 200;" xml:space="preserve">
<style type="text/css">
	.st0{fill:#775D51;}
	.st1{fill:#604B42;}
	.st2{fill:#84665B;}
</style>
<g>
	<path class="st0" d="M16.9,107.5c-1.7,7-3.4,14-4,21.1c-1,13.4,2.1,26.9,2.1,40.3c1.5-11.3,3.1-22.7,7.5-33.3
		c4.4-10.5,11.8-20.2,22.1-25.1c-0.2,0.1-6.8-5.7-7.7-6.3c-2.9-2-6.1-3.8-9.4-5.1C20.3,96.4,18.5,101.2,16.9,107.5z"/>
	<path class="st0" d="M181.7,104.7c1.7,7,3.4,14,4,21.1c1,13.4-2.1,26.9-2.1,40.3c-1.5-11.3-3.1-22.7-7.5-33.3
		c-4.4-10.5-11.8-20.2-22.1-25.1c0.2,0.1,6.8-5.7,7.7-6.3c2.9-2,6.1-3.8,9.4-5.1C178.3,93.5,180.2,98.4,181.7,104.7z"/>
	<path class="st0" d="M45.2,113.7c13.5-6.4,28.4-8.8,43.1-10.8c12.7-1.7,25.5-3.1,38.2-2.1c12.8,0.9,25.6,4.3,36.2,11.5
		c4.3,2.9,8.2,6.4,13,8.3c4.8,1.9,10.9,1.7,14.4-2.2c1.6-1.7,2.4-4,3-6.3c3.6-13.4,0.8-28.1-6.2-40.2C180,59.8,169.3,50.2,157.5,43
		c-5.9-3.6-12.2-6.7-19-7.7c-5.3-0.8-10.7-0.3-16.1-0.2c-17.9,0.6-35.9-2.3-53.5,0.5c-20.3,3.2-39.2,14.2-52,30.2
		C10.3,74.1,5.2,83.7,3.7,94.1c-1.3,8.6-0.4,25.3,8.4,30.5C21.8,130.5,36.7,117.7,45.2,113.7z"/>
	<path class="st0" d="M96.6,108.9c0.1,1.1,0.6,2.1,1.2,2.9c2.3,3.3,6.1,5.3,10,5.9c3.9,0.6,8-0.1,11.7-1.6c-3,0.4-6.1,0.8-9-0.3
		c-2.8-1.1-5.1-4.2-4.3-7.1c1.1-3.7,5.8-4.4,9.2-6c2.6-1.2,4.8-3.2,6.2-5.7c0.9-1.5,1.4-3.5,0.4-4.9c-1.1-1.6-3.3-1.7-5.2-1.6
		c-4.3,0.2-13.2,0.6-16,4.7c-1.1,1.6-0.4,3.7-1,5.5C98.9,103.5,96.2,105.6,96.6,108.9z"/>
	<g>
		<path class="st1" d="M119.1,60.3c-0.2-5.2-1.2-10.5-2.6-15.5C117.7,49.9,118.6,55.1,119.1,60.3z"/>
		<path class="st1" d="M126.6,101.1c12.8,0.9,25.6,4.3,36.2,11.5c4.3,2.9,8.2,6.4,13,8.3c4.8,1.9,10.9,1.7,14.4-2.2
			c1.6-1.7,2.4-4,3-6.3c3.6-13.4,0.8-28.1-6.2-40.2c-6.9-12.1-17.6-21.7-29.5-28.9c-5.9-3.6-12.2-6.7-19-7.7c-2-0.3-4-0.4-6-0.4
			c13.4,5.7,25.9,13.7,36.8,23.5c-3.5-1.7-7-3.4-10.4-5.2c4,4.8,7.6,10,10.6,15.6c2.8,5.1,5.1,10.7,4.8,16.4
			c-0.3,5.8-3.8,11.7-9.4,13.3c-0.2-6.6-0.3-13.1-0.5-19.7c-1.2,7.8-5.3,15.2-11.3,20.4c0.6-16.2-1.1-32.5-4.8-48.3
			c1.1,7.7,0.8,15.7-1.9,22.9c-2.7,7.2-8.2,13.7-15.4,16.5c2.2-5.3,3.7-10.9,4.3-16.6c-3.7,9.2-10.6,17.2-19.2,22.1
			c3.1-11.6,4.1-23.8,3-35.7c0.2,4.4-0.1,8.9-1.1,13.2c-2.1,9.5-7.6,18.4-16,23.4c-0.5-5-1-9.9-1.5-14.9c-1,3.5-2.8,6.8-5.4,9.5
			c-2.5-16.2-5.9-32.3-10.1-48.2c2.6,15.6,2.2,31.7-1.2,47.2c-1.7-10.8-3.2-21.7-4.3-32.5c0,12.2-0.8,24.4-2.4,36.5
			c-7-2.9-11.6-9.9-13.5-17.2c-1.9-7.3-1.6-15-1.1-22.6c-1.9,4.8-3.3,9.8-4.3,14.9c-0.9-7.8-0.1-15.8,2.4-23.3
			c-11.5,15.2-14.6,36.4-8,54.3c-3.6-0.3-7-1.9-9.5-4.5c1,2.5,2.1,4.9,3.1,7.4c-4.2-0.1-8.3-3-9.6-7c1.1,3.5,2.2,7,3.4,10.5
			c-8.9-5.3-12.6-16.8-11.1-27c1.5-10.2,7.5-19.3,14.2-27.1c-8,7.4-16.1,15.3-19.9,25.5c-3.8,10.2-2.2,23.3,6.6,29.7
			c-6.6,0.6-13.3-4.6-14.3-11.2c0.2,5.8,3.1,11.4,7.8,14.8c-5.2-0.8-9.5-4.7-11.7-9.4C9.4,97.7,9,92.3,9.3,87.1
			c0.4-5.5,1.7-10.7,3.7-15.8c-4.7,7-8.2,14.8-9.4,23c-1.3,8.6-0.4,25.3,8.4,30.6c9.8,5.9,24.7-6.9,33.1-10.9
			c13.5-6.4,28.4-8.8,43.1-10.8C101,101.5,113.8,100.1,126.6,101.1z"/>
	</g>
	<path class="st1" d="M102.9,109.9c0.7,4.5,5.3,7.7,9.8,7.8c4.5,0.1,8.9-2.2,12.2-5.3c-3,1.6-6.3,2.4-9.6,2.3
		c-1.3,0-2.7-0.2-3.8-0.9c-1.1-0.7-1.9-2.1-1.5-3.4c0.2-0.6,0.6-1.1,1-1.6c5.2-6,13.3-9.4,21.2-9c-1-0.1-2.7-1.2-3.7-1.6
		c-1.4-0.5-2.8-0.9-4.2-1.3c-2.9-0.7-5.8-1-8.7-0.9c-4.5,0.1-6.8,1.9-9.7,5.2C103.9,103.7,102.4,106.7,102.9,109.9z"/>
	<path class="st2" d="M35.8,86.8c1.6-5.6,3.2-11.2,4.7-16.8c-0.7,2.4-0.8,5-0.3,7.5c1.9-12.9,8.1-25.2,17.3-34.4
		c-0.6,0.4-0.9,1.2-0.7,1.9c1.7-1.7,3.8-3,6-3.6c-0.1,3.2-0.2,6.4-0.3,9.6c1.8-3.1,4.2-5.9,7.2-7.9c-2.5,10.8-2.7,22-0.6,32.9
		c-1-12.4,1.7-25.1,7.5-36c-1.6-0.4-3.3,0.1-4.3,1.4c0-1.1-0.1-2.3-0.1-3.4c-1.9,1-4.3,0.2-6.4,0.2c-2.9-0.1-5.7,1.1-8.2,2.6
		c-5,2.8-9.5,6.6-13.1,11.1c0.8-1.8,1.5-3.6,2.3-5.5C32.4,56.4,19.5,69.8,14,86.5c6.1-11.6,14-22.4,23.3-31.7
		c1.7-1.7,3.7-3.6,6.1-3.9c-1.1,6-3,10.1-5.2,15.8c-1.2,3.2-2.1,6.6-2.5,10.1C35.3,79.7,36.5,84.1,35.8,86.8z"/>
	<path class="st2" d="M94.6,65.4c1.1-4.4,1.6-9,1.7-13.5c-0.3,1.5-0.1,3.1,0.5,4.6c0.3-1.6,0.7-3.1,1-4.7c3.3,7.7,5.1,16,5.3,24.3
		c1.1-10.1,1.6-20.3,1.7-30.4c0.8,3.4,1.9,6.8,3.3,10c0.4-5.6,0.5-11.9-3.3-15.9c0,1.3-0.1,2.5-0.1,3.8c-0.3-1-1-2-1.9-2.6
		c-0.1,0.8-0.1,1.5-0.2,2.3c-2.2-1.4-4.4-2.9-6.5-4.3c1.5,3.6,2.4,7.5,2.7,11.4c-2.4-3.9-4.9-7.9-8.6-10.6c1.9,3.5,3.5,7.2,4.6,11
		c-2.1-4.8-5.5-9.5-9.8-12.6c1.5,3.6,3.9,6.7,5.3,10.4C92.1,52.7,95.7,61,94.6,65.4z"/>
</g>
</svg>
